<svg width="103" height="35" viewBox="0 0 103 35" fill="none" xmlns="http://www.w3.org/2000/svg">
<g clip-path="url(#clip0_2_560)">
<path d="M99.3361 21.2997L102.157 23.1803C101.242 24.5288 99.0517 26.8425 95.2658 26.8425C90.5644 26.8425 87.0633 23.2051 87.0633 18.5779C87.0633 13.6539 90.6016 10.3134 94.87 10.3134C99.163 10.3134 101.266 13.728 101.947 15.5714L102.318 16.5118L91.2574 21.0894C92.0986 22.7473 93.4102 23.5886 95.2658 23.5886C97.1217 23.5886 98.4083 22.6731 99.3361 21.2997ZM90.6635 18.3183L98.0496 15.2499C97.6413 14.2231 96.429 13.4932 94.9812 13.4932C93.1379 13.4932 90.577 15.1264 90.6635 18.3183Z" fill="#FF302F"/>
<path d="M81.7309 1.88814H85.2939V26.0879H81.7309V1.88794V1.88814Z" fill="#20B15A"/>
<path d="M76.1141 10.9567H79.5535V25.6547C79.5535 31.754 75.9532 34.2656 71.6972 34.2656C67.6887 34.2656 65.2763 31.5685 64.3731 29.3787L67.5279 28.0672C68.0969 29.4157 69.4702 31.0119 71.6972 31.0119C74.4313 31.0119 76.1141 29.3168 76.1141 26.1497V24.962H75.9904C75.1737 25.9517 73.6149 26.8424 71.6354 26.8424C67.5031 26.8424 63.7171 23.2421 63.7171 18.6028C63.7171 13.9384 67.5031 10.3011 71.6354 10.3011C73.6025 10.3011 75.1737 11.1796 75.9904 12.1446H76.1141V10.9569V10.9567ZM76.3613 18.6028C76.3613 15.6829 74.419 13.5549 71.9446 13.5549C69.4454 13.5549 67.3422 15.6829 67.3422 18.6028C67.3422 21.4853 69.4454 23.5762 71.9446 23.5762C74.4192 23.5887 76.3615 21.4853 76.3615 18.6028H76.3613Z" fill="#3686F7"/>
<path d="M44.1571 18.5408C44.1571 23.304 40.4456 26.8052 35.8927 26.8052C31.3399 26.8052 27.6282 23.2917 27.6282 18.5408C27.6282 13.7528 31.3399 10.264 35.8927 10.264C40.4456 10.264 44.1571 13.7528 44.1571 18.5408ZM40.5445 18.5408C40.5445 15.5716 38.3917 13.53 35.8927 13.53C33.3936 13.53 31.2408 15.5716 31.2408 18.5408C31.2408 21.4852 33.3936 23.5515 35.8927 23.5515C38.3919 23.5515 40.5445 21.4852 40.5445 18.5408Z" fill="#FF302F"/>
<path d="M62.2079 18.5779C62.2079 23.3412 58.4962 26.8423 53.9434 26.8423C49.3905 26.8423 45.679 23.341 45.679 18.5779C45.679 13.79 49.3905 10.3134 53.9434 10.3134C58.4962 10.3134 62.2079 13.7776 62.2079 18.5779ZM58.5828 18.5779C58.5828 15.6088 56.4301 13.5671 53.9309 13.5671C51.4319 13.5671 49.279 15.6088 49.279 18.5779C49.279 21.5224 51.4319 23.5886 53.9309 23.5886C56.4425 23.5886 58.5828 21.5101 58.5828 18.5779Z" fill="#FFBA40"/>
<path d="M14.0437 23.2175C8.85978 23.2175 4.80193 19.0357 4.80193 13.8517C4.80193 8.668 8.85978 4.48622 14.0437 4.48622C16.8398 4.48622 18.8811 5.58727 20.3905 6.99775L22.8774 4.51104C20.7742 2.49443 17.9657 0.960022 14.0437 0.960022C6.94227 0.960221 0.966507 6.75049 0.966507 13.8517C0.966507 20.9534 6.94227 26.7435 14.0437 26.7435C17.8791 26.7435 20.7742 25.4815 23.0382 23.1309C25.3641 20.8048 26.0816 17.5386 26.0816 14.891C26.0816 14.0621 25.9827 13.2085 25.8713 12.5775H14.0437V16.0169H22.469C22.2216 18.1698 21.5412 19.642 20.539 20.644C19.3266 21.8689 17.409 23.2175 14.0437 23.2175Z" fill="#3686F7"/>
</g>
<defs>
<clipPath id="clip0_2_560">
<rect width="101.685" height="33.3653" fill="white" transform="translate(0.818756 0.908813)"/>
</clipPath>
</defs>
</svg>
