<svg width="180" height="34" viewBox="0 0 180 34" fill="none" xmlns="http://www.w3.org/2000/svg">
<g clip-path="url(#clip0_2_552)">
<path d="M3.80218 26.1925C3.13969 26.1939 2.4887 26.0194 1.91571 25.6869C1.34272 25.3544 0.868263 24.8757 0.540811 24.2998C0.218316 23.728 0.0574543 23.0792 0.075458 22.423C0.0934618 21.7667 0.289652 21.1278 0.643014 20.5745L7.35962 10.0275C7.70335 9.46068 8.19139 8.99519 8.77388 8.67865C9.35637 8.36211 10.0124 8.20584 10.6751 8.22582C11.3373 8.24168 11.9833 8.43318 12.5472 8.78074C13.111 9.12829 13.5724 9.61942 13.8841 10.2039C14.1912 10.7838 14.3346 11.4363 14.299 12.0915C14.2634 12.7468 14.0502 13.3799 13.6822 13.9232L6.96978 24.4712C6.62933 25.0016 6.16049 25.4375 5.6067 25.7385C5.05291 26.0395 4.43211 26.1957 3.80183 26.1929L3.80218 26.1925Z" fill="#F62B54"/>
<path d="M15.3226 26.1924C13.968 26.1924 12.7215 25.4682 12.0668 24.3039C11.7451 23.7337 11.5847 23.0866 11.6028 22.4321C11.6209 21.7776 11.8167 21.1404 12.1694 20.5888L18.873 10.0657C19.2116 9.49084 19.6979 9.01704 20.2814 8.69343C20.8649 8.36983 21.5243 8.20822 22.1913 8.22536C23.5575 8.25556 24.7955 9.0198 25.4217 10.215C25.7273 10.8004 25.8662 11.4584 25.8235 12.1173C25.7808 12.7763 25.558 13.4109 25.1794 13.9519L18.4775 24.4746C18.1382 25.0028 17.6712 25.4369 17.1199 25.7371C16.5685 26.0372 15.9504 26.1937 15.3226 26.192V26.1924Z" fill="#FFCC00"/>
<path d="M26.5857 26.2805C28.4955 26.2805 30.0437 24.7648 30.0437 22.8952C30.0437 21.0255 28.4955 19.5098 26.5857 19.5098C24.6758 19.5098 23.1276 21.0255 23.1276 22.8952C23.1276 24.7648 24.6758 26.2805 26.5857 26.2805Z" fill="#00CA72"/>
<path d="M176.806 19.7065C177.85 19.7065 178.475 20.4493 178.475 21.6659V25.8352H179.894V21.5704C179.894 19.5017 178.919 18.302 177.086 18.302C176.369 18.302 175.23 18.4983 174.552 19.8175C174.394 19.4283 174.134 19.0892 173.799 18.8361C173.464 18.583 173.066 18.4253 172.649 18.38C172.386 18.3319 172.118 18.3162 171.852 18.3333C171.269 18.38 170.23 18.7431 169.841 19.5653V18.4597H168.421V25.8352H169.841V21.8552C169.841 20.3067 170.855 19.7065 171.869 19.7065C172.82 19.7065 173.445 20.4335 173.445 21.6501V25.8352H174.856V21.8552C174.856 20.6225 175.596 19.6921 176.805 19.7065H176.806ZM163.209 24.6028C163.531 24.6094 163.85 24.5493 164.148 24.4264C164.446 24.3034 164.714 24.1203 164.938 23.8884C165.163 23.6548 165.339 23.3781 165.455 23.0749C165.57 22.7717 165.623 22.4482 165.611 22.1239C165.611 20.6383 164.518 19.7065 163.209 19.7065C161.898 19.7065 160.806 20.6383 160.806 22.1239C160.794 22.4473 160.846 22.7699 160.961 23.0724C161.076 23.3749 161.251 23.6511 161.476 23.8842C161.698 24.1159 161.965 24.2993 162.262 24.4229C162.558 24.5466 162.877 24.6078 163.198 24.6028H163.209ZM163.209 25.9859C161.134 25.9859 159.402 24.4535 159.402 22.1155C159.402 19.7774 161.134 18.2932 163.209 18.2932C165.283 18.2932 167.03 19.7774 167.03 22.1155C167.03 24.4535 165.274 25.9929 163.199 25.9929L163.209 25.9859ZM152.095 22.1155L152.081 22.1239C152.081 19.7859 153.858 18.302 155.947 18.2932C156.472 18.2831 156.993 18.3832 157.477 18.5871C157.96 18.7911 158.396 19.0943 158.755 19.4772L157.679 20.3938C157.45 20.1694 157.18 19.9925 156.883 19.8733C156.585 19.7541 156.268 19.6949 155.947 19.6991C154.638 19.6991 153.499 20.6312 153.499 22.1155C153.499 23.1185 154.096 24.0226 155.011 24.4064C155.459 24.5939 155.952 24.6428 156.428 24.5469C156.903 24.4511 157.339 24.2148 157.679 23.8687L158.77 24.7851C158.41 25.1719 157.973 25.4788 157.486 25.6857C157 25.8926 156.476 25.995 155.947 25.9862C153.874 25.9862 152.095 24.4535 152.095 22.1155ZM147.552 24.4194C147.549 24.1591 147.649 23.9081 147.831 23.7219C148.013 23.5356 148.262 23.4293 148.522 23.4262C148.782 23.4293 149.031 23.5356 149.213 23.7219C149.395 23.9081 149.495 24.1591 149.492 24.4194C149.48 24.6691 149.372 24.9045 149.192 25.0776C149.012 25.2507 148.772 25.3486 148.522 25.3512C148.272 25.3486 148.033 25.2507 147.852 25.0776C147.672 24.9045 147.564 24.6691 147.552 24.4194ZM151.434 9.0837H146.38L142.839 18.2153L139.315 9.0837H134.262L140.405 23.513L136.585 33.0526H141.601L151.434 9.0837ZM120.702 17.1093C120.702 19.4146 122.717 20.9315 124.697 20.9315C126.642 20.9315 128.553 19.5197 128.553 17.1079C128.553 14.6961 126.642 13.2832 124.697 13.2832C122.717 13.2832 120.702 14.8015 120.702 17.1079V17.1093ZM128.553 25.1661V23.3405C127.529 24.8918 125.138 25.478 123.911 25.478C119.85 25.478 115.788 22.2763 115.788 17.1079C115.788 11.9412 119.849 8.73916 123.911 8.73916C124.935 8.73916 127.325 9.08089 128.553 10.8738V9.08967H133.263V25.1693L128.553 25.1679V25.1665L128.553 25.1661ZM114.447 25.1661H109.737V23.1684C108.95 24.6484 107.042 25.511 105.061 25.511C100.964 25.511 97.3453 22.2391 97.3453 17.1732C97.3453 12.0121 100.964 8.73635 105.061 8.73635C107.039 8.73635 108.953 9.5617 109.737 11.0431V0.32373H114.447V25.1665V25.1661ZM109.634 17.0724C109.634 14.6617 107.894 13.2487 105.949 13.2487C103.934 13.2487 102.261 14.7642 102.261 17.0724C102.261 19.4543 103.934 20.9628 105.948 20.9628C107.93 20.9656 109.634 19.3806 109.634 17.0724Z" fill="#333333"/>
<path d="M85.6998 16.6569C85.6998 14.2125 86.9635 13.3853 88.6353 13.3853C90.2389 13.3853 91.4004 14.4527 91.4004 16.587V25.1636H96.1446V15.5555C96.1446 10.9764 93.8905 8.73633 90.306 8.73633C88.4291 8.73633 86.5522 9.80402 85.6981 11.4231V9.08368H80.9567V25.1636H85.6998V16.6569ZM71.3232 25.4397C66.8179 25.4397 63.0599 22.1341 63.0599 17.071C63.0599 12.0051 66.8136 8.73212 71.3232 8.73212C75.8328 8.73212 79.6189 12.0051 79.6189 17.071C79.6189 22.1369 75.8282 25.4411 71.3232 25.4411V25.4397ZM71.3232 20.758C73.3013 20.758 74.9418 19.3093 74.9418 17.0724C74.9418 14.9022 73.3027 13.4208 71.3232 13.4208C70.8466 13.4134 70.3735 13.5031 69.9326 13.6844C69.4918 13.8657 69.0925 14.1349 68.759 14.4755C68.4236 14.8179 68.1604 15.2242 67.9852 15.6703C67.8099 16.1165 67.7261 16.5932 67.7387 17.0724C67.7401 19.3121 69.3779 20.758 71.3232 20.758Z" fill="#333333"/>
<path d="M54.5542 13.3867C55.9531 13.3867 57.1827 14.4896 57.1827 16.5884V25.1665H61.8924V16.0335C61.8924 11.1783 59.5319 8.73352 55.7479 8.73352C54.6241 8.73352 52.5062 9.07525 50.9697 11.591C50.0818 9.73097 48.3756 8.76618 45.8539 8.76618C44.9784 8.76174 44.1202 9.00955 43.3818 9.47998C42.6434 9.9504 42.0562 10.6235 41.6903 11.4189V9.08509H36.9433V25.165H41.6861V16.6569C41.6861 14.2125 43.0179 13.3853 44.4508 13.3853C45.817 13.3853 47.0438 14.4527 47.0793 16.4848V25.165H51.8235V16.6569C51.8235 14.3189 53.0527 13.3882 54.5542 13.3882V13.3867Z" fill="#333333"/>
</g>
<defs>
<clipPath id="clip0_2_552">
<rect width="179.821" height="33.3653" fill="white" transform="translate(0.0738831 0.32373)"/>
</clipPath>
</defs>
</svg>
