<svg width="769" height="607" viewBox="0 0 769 607" fill="none" xmlns="http://www.w3.org/2000/svg">
<path d="M774.075 186.288V441.183C774.075 485.358 774.075 512.293 774.075 578.984C650.395 546.908 637.415 616.88 563.198 605.599C508.268 597.212 498.85 545.12 448.404 517.686C395.459 488.893 338.754 509.653 310.549 485.358C260.935 442.644 306.877 368.734 316.356 344.316C334.885 296.545 329.159 280.849 323.679 268.728C315.954 251.619 294.334 239.246 258.58 243.184C226.505 246.726 156.213 267.07 111.383 243.184C72.1758 222.335 66.6275 179.17 83.4021 98.7095C101.664 11.5539 8.67391 6.25806 8.67391 6.25806L0 0H774.075V186.288Z" fill="url(#paint0_radial_27_1753)"/>
<defs>
<radialGradient id="paint0_radial_27_1753" cx="0" cy="0" r="1" gradientUnits="userSpaceOnUse" gradientTransform="translate(705.871 682.5) rotate(-120.046) scale(707.008 707.008)">
<stop stop-color="#15ABFF"/>
<stop offset="0.0394" stop-color="#14A8FE"/>
<stop offset="1" stop-color="#035EDF"/>
</radialGradient>
</defs>
</svg>
