<svg width="543" height="553" viewBox="0 0 543 553" fill="none" xmlns="http://www.w3.org/2000/svg">
<path d="M376.431 289.417V281.91H372.083C371.728 280.497 371.169 279.143 370.425 277.891L373.496 274.827L368.193 269.524L365.129 272.595C363.877 271.851 362.523 271.292 361.11 270.937V266.589H353.603V270.937C352.192 271.291 350.84 271.85 349.59 272.595L346.519 269.524L341.223 274.827L344.294 277.891C343.548 279.143 342.987 280.497 342.629 281.91H338.289V289.417H342.629C342.986 290.829 343.547 292.181 344.294 293.43L341.223 296.501L346.519 301.797L349.59 298.726C350.841 299.487 352.198 300.057 353.616 300.418V304.766H361.123V300.418C362.538 300.063 363.892 299.502 365.143 298.753L368.207 301.824L373.51 296.528L370.439 293.457C371.184 292.208 371.742 290.856 372.097 289.445L376.431 289.417ZM349.815 285.439C349.86 283.962 350.336 282.531 351.184 281.321C352.032 280.111 353.216 279.177 354.59 278.632C355.963 278.087 357.466 277.957 358.913 278.256C360.359 278.555 361.687 279.271 362.732 280.316C363.776 281.36 364.492 282.688 364.792 284.135C365.091 285.582 364.96 287.084 364.415 288.458C363.871 289.831 362.936 291.015 361.726 291.863C360.517 292.712 359.085 293.188 357.609 293.232C355.558 293.176 353.607 292.337 352.156 290.888C350.704 289.438 349.862 287.489 349.801 285.439H349.815Z" fill="#79FFFF"/>
<path d="M525.939 68.4213V49.5721H515.02C514.122 46.015 512.71 42.6078 510.829 39.4582L518.568 31.7328L505.233 18.3978L497.487 26.1094C494.337 24.2352 490.933 22.824 487.38 21.9192V11H468.545V21.9192C464.991 22.8216 461.587 24.2329 458.438 26.1094L450.712 18.3841L437.377 31.7192L445.103 39.4445C443.227 42.5959 441.817 46.0026 440.919 49.5584H430V68.4213H440.919C441.819 71.9767 443.228 75.3833 445.103 78.5352L437.377 86.2606L450.712 99.5888L458.438 91.8635C461.586 93.7385 464.991 95.1454 468.545 96.0401V106.959H487.401V96.0401C490.954 95.1429 494.358 93.7362 497.508 91.8635L505.24 99.5888L518.575 86.2606L510.836 78.5352C512.716 75.385 514.128 71.978 515.026 68.4213H525.939ZM478.536 78.0234C473.381 77.8775 468.476 75.7653 464.828 72.1198C461.18 68.4744 459.065 63.5717 458.915 58.4166C459.025 54.6981 460.221 51.093 462.355 48.046C464.49 44.9991 467.469 42.6436 470.927 41.2702C474.384 39.8967 478.168 39.5654 481.811 40.3171C485.454 41.0687 488.798 42.8705 491.43 45.5002C494.061 48.1298 495.865 51.4722 496.619 55.1151C497.374 58.758 497.045 62.542 495.674 66.0003C494.303 69.4586 491.949 72.4399 488.904 74.5764C485.859 76.7129 482.254 77.9112 478.536 78.0234Z" fill="#79FFFF"/>
<path opacity="0.51" d="M400.705 298.146V294.051H398.33C398.136 293.278 397.831 292.538 397.423 291.854L399.102 290.175L396.201 287.281L394.522 288.96C393.838 288.55 393.098 288.242 392.325 288.046V285.671H388.23V288.046C387.458 288.245 386.718 288.553 386.033 288.96L384.354 287.281L381.46 290.175L383.139 291.854C382.731 292.538 382.425 293.278 382.231 294.051H379.856V298.146H382.231C382.425 298.919 382.731 299.659 383.139 300.343L381.46 302.022L384.354 304.916L386.033 303.237C386.718 303.642 387.458 303.948 388.23 304.145V306.52H392.325V304.145C393.098 303.951 393.838 303.645 394.522 303.237L396.201 304.916L399.102 302.022L397.423 300.343C397.831 299.659 398.136 298.919 398.33 298.146H400.705ZM386.142 295.969C386.166 295.161 386.427 294.377 386.891 293.715C387.355 293.053 388.003 292.541 388.755 292.243C389.507 291.945 390.329 291.873 391.121 292.037C391.913 292.201 392.64 292.593 393.212 293.164C393.783 293.736 394.175 294.463 394.339 295.255C394.503 296.047 394.431 296.869 394.133 297.621C393.835 298.373 393.323 299.021 392.661 299.485C391.999 299.949 391.215 300.21 390.407 300.234C389.283 300.207 388.211 299.749 387.414 298.956C386.617 298.162 386.154 297.093 386.121 295.969H386.142Z" fill="#79FFFF"/>
<path d="M183.7 73.8656H471.523V266.071C471.523 268.082 470.724 270.01 469.302 271.432C467.88 272.854 465.952 273.653 463.941 273.653H183.7V73.8656Z" fill="#D4E4FF"/>
<path d="M457.089 241.974H322.053V244.253H457.089V241.974Z" fill="#D4E4FF"/>
<path d="M457.089 250.306H322.053V252.586H457.089V250.306Z" fill="#D4E4FF"/>
<path d="M457.089 258.646H322.053V260.925H457.089V258.646Z" fill="#D4E4FF"/>
<path d="M452.326 127.82H271.272C269.391 127.82 267.866 129.345 267.866 131.226V232.453C267.866 234.334 269.391 235.859 271.272 235.859H452.326C454.207 235.859 455.731 234.334 455.731 232.453V131.226C455.731 129.345 454.207 127.82 452.326 127.82Z" fill="#007AFF"/>
<path d="M471.523 73.8656H183.7V96.4137H471.523V73.8656Z" fill="#FFBC3A"/>
<path d="M197.895 85.133C197.895 86.0643 197.619 86.9747 197.101 87.7491C196.584 88.5235 195.848 89.127 194.988 89.4834C194.128 89.8398 193.181 89.9331 192.267 89.7514C191.354 89.5697 190.515 89.1212 189.856 88.4627C189.198 87.8041 188.749 86.9651 188.568 86.0516C188.386 85.1382 188.479 84.1914 188.836 83.331C189.192 82.4705 189.795 81.7351 190.57 81.2177C191.344 80.7002 192.255 80.4241 193.186 80.4241C194.435 80.4241 195.633 80.9202 196.516 81.8033C197.399 82.6864 197.895 83.8841 197.895 85.133V85.133Z" fill="#FFCA1C"/>
<path d="M196.339 85.1329C196.34 85.7584 196.156 86.3703 195.809 86.8909C195.462 87.4116 194.969 87.8176 194.391 88.0576C193.814 88.2976 193.178 88.3608 192.564 88.2391C191.951 88.1174 191.387 87.8163 190.945 87.374C190.502 86.9317 190.201 86.3681 190.08 85.7545C189.958 85.1409 190.021 84.505 190.261 83.9274C190.501 83.3498 190.907 82.8563 191.428 82.5097C191.948 82.163 192.56 81.9786 193.186 81.98C194.022 81.98 194.824 82.3122 195.415 82.9035C196.007 83.4947 196.339 84.2967 196.339 85.1329V85.1329Z" fill="#33497F"/>
<path d="M211.155 85.133C211.155 86.0643 210.879 86.9747 210.361 87.7491C209.844 88.5235 209.108 89.127 208.248 89.4834C207.387 89.8398 206.441 89.9331 205.527 89.7514C204.614 89.5697 203.775 89.1212 203.116 88.4627C202.458 87.8041 202.009 86.9651 201.828 86.0516C201.646 85.1382 201.739 84.1914 202.095 83.331C202.452 82.4705 203.055 81.7351 203.83 81.2177C204.604 80.7002 205.515 80.4241 206.446 80.4241C207.065 80.4232 207.677 80.5444 208.249 80.7807C208.821 81.017 209.34 81.3638 209.778 81.8013C210.215 82.2387 210.562 82.7582 210.798 83.3299C211.035 83.9016 211.156 84.5144 211.155 85.133V85.133Z" fill="#FFCA1C"/>
<path d="M206.446 88.2858C208.187 88.2858 209.599 86.8742 209.599 85.1329C209.599 83.3916 208.187 81.98 206.446 81.98C204.705 81.98 203.293 83.3916 203.293 85.1329C203.293 86.8742 204.705 88.2858 206.446 88.2858Z" fill="#0ED0E9"/>
<path d="M224.421 85.133C224.421 86.0643 224.145 86.9747 223.628 87.7491C223.11 88.5235 222.375 89.127 221.515 89.4834C220.654 89.8398 219.707 89.9331 218.794 89.7514C217.88 89.5697 217.041 89.1212 216.383 88.4627C215.724 87.8041 215.276 86.9651 215.094 86.0516C214.912 85.1382 215.006 84.1914 215.362 83.331C215.719 82.4705 216.322 81.7351 217.096 81.2177C217.871 80.7002 218.781 80.4241 219.713 80.4241C220.961 80.4241 222.159 80.9202 223.042 81.8033C223.925 82.6864 224.421 83.8841 224.421 85.133V85.133Z" fill="#FFCA1C"/>
<path d="M222.872 85.1329C222.874 85.7581 222.69 86.3697 222.343 86.8902C221.997 87.4107 221.504 87.8168 220.927 88.057C220.349 88.2972 219.714 88.3607 219.1 88.2396C218.487 88.1184 217.923 87.818 217.481 87.3764C217.038 86.9348 216.737 86.3718 216.614 85.7587C216.492 85.1455 216.554 84.5099 216.793 83.9321C217.032 83.3544 217.437 82.8605 217.957 82.513C218.476 82.1655 219.087 81.98 219.713 81.98C220.55 81.98 221.352 82.3119 221.945 82.903C222.537 83.4941 222.871 84.2961 222.872 85.1329Z" fill="#D4E4FF"/>
<path d="M299.566 63.1854H320.04C320.565 63.1854 321.068 63.3939 321.439 63.7651C321.81 64.1362 322.019 64.6396 322.019 65.1645V73.8658H299.566V63.1854Z" fill="#D4E4FF"/>
<path d="M322.046 73.8658H310.717L310.185 71.1223L322.046 73.8658Z" fill="#D6F0FF"/>
<path d="M266.42 54.8937H307.223C308.327 54.8937 309.386 55.3323 310.167 56.113C310.948 56.8937 311.386 57.9525 311.386 59.0566V73.8658H266.42V54.8937V54.8937Z" fill="#0ED0E9"/>
<path d="M311.386 73.8657L292.66 70.0508L294.953 73.8657H311.386Z" fill="#00CCFF"/>
<path d="M183.7 47.0182H288.319C290.079 47.0182 291.766 47.7171 293.01 48.9611C294.254 50.2051 294.953 51.8923 294.953 53.6516V73.8658H183.714V47.0182H183.7Z" fill="#33497F"/>
<path d="M294.953 73.8657L183.7 64.7413V73.8657H294.953Z" fill="#0068F2"/>
<path d="M399.784 113.591H267.866V117.665H399.784V113.591Z" fill="#1A2258"/>
<path d="M320.504 102.508H267.866V106.582H320.504V102.508Z" fill="#1A2258"/>
<path d="M446.054 216.368H402.752V219.917H446.054V216.368Z" fill="#0ED0E9"/>
<path d="M446.054 224.032H402.752V227.581H446.054V224.032Z" fill="#0ED0E9"/>
<path d="M206.337 161.486V152.075H200.877C200.426 150.3 199.723 148.599 198.789 147.024L202.645 143.169L195.991 136.508L192.128 140.371C190.555 139.431 188.854 138.726 187.078 138.275V132.816H177.667V138.275C175.891 138.726 174.19 139.431 172.617 140.371L168.761 136.508L162.1 143.169L165.963 147.024C165.024 148.598 164.318 150.299 163.868 152.075H158.408V161.486H163.868C164.318 163.261 165.024 164.963 165.963 166.536L162.1 170.398L168.761 177.052L172.617 173.196C174.191 174.131 175.892 174.834 177.667 175.285V180.744H187.098V175.285C188.873 174.834 190.574 174.131 192.149 173.196L196.011 177.052L202.665 170.398L198.809 166.536C199.744 164.961 200.447 163.26 200.898 161.486H206.337ZM172.897 156.49C172.953 154.634 173.552 152.835 174.619 151.315C175.686 149.795 177.175 148.62 178.901 147.936C180.628 147.252 182.517 147.089 184.335 147.465C186.154 147.842 187.822 148.743 189.135 150.056C190.448 151.37 191.347 153.039 191.722 154.858C192.098 156.676 191.933 158.565 191.248 160.291C190.562 162.017 189.387 163.505 187.866 164.571C186.345 165.637 184.546 166.234 182.69 166.29C180.11 166.221 177.655 165.167 175.829 163.345C174.002 161.522 172.943 159.069 172.869 156.49H172.897Z" fill="#007AFF"/>
<path d="M220.115 127.24V122.756H217.522C217.308 121.914 216.973 121.107 216.526 120.361L218.362 118.525L215.195 115.352L213.359 117.188C212.61 116.744 211.801 116.411 210.957 116.198V113.598H206.48V116.198C205.636 116.412 204.828 116.746 204.078 117.188L202.242 115.352L199.075 118.525L200.911 120.361C200.464 121.107 200.129 121.914 199.915 122.756H197.335V127.24H199.929C200.144 128.085 200.479 128.894 200.925 129.642L199.089 131.478L202.256 134.645L204.091 132.809C204.84 133.254 205.649 133.587 206.494 133.798V136.399H210.984V133.798C211.829 133.588 212.639 133.255 213.386 132.809L215.222 134.645L218.389 131.478L216.553 129.642C216.999 128.894 217.334 128.085 217.549 127.24H220.115ZM204.201 124.858C204.228 123.975 204.513 123.12 205.02 122.397C205.528 121.674 206.236 121.115 207.057 120.79C207.879 120.465 208.777 120.387 209.642 120.566C210.507 120.746 211.301 121.175 211.925 121.8C212.549 122.425 212.977 123.219 213.155 124.084C213.333 124.949 213.254 125.848 212.928 126.669C212.601 127.49 212.042 128.197 211.318 128.703C210.594 129.21 209.738 129.494 208.855 129.519C207.629 129.488 206.462 128.987 205.596 128.119C204.73 127.252 204.23 126.084 204.201 124.858V124.858Z" fill="#007AFF"/>
<path d="M229.117 148.232V145.1H227.308C227.159 144.512 226.93 143.947 226.626 143.421L227.909 142.138L225.698 139.927L224.415 141.21C223.891 140.904 223.325 140.674 222.736 140.528V138.678H219.604V140.493C219.014 140.64 218.449 140.87 217.925 141.176L216.649 139.893L214.431 142.104L215.714 143.387C215.41 143.913 215.18 144.478 215.031 145.066H213.223V148.232H215.031C215.18 148.821 215.41 149.386 215.714 149.911L214.431 151.187L216.649 153.405L217.925 152.122C218.45 152.426 219.015 152.656 219.604 152.805V154.613H222.736V152.805C223.324 152.656 223.889 152.426 224.415 152.122L225.698 153.405L227.909 151.187L226.626 149.911C226.93 149.386 227.159 148.821 227.308 148.232H229.117ZM218 146.567C218.019 145.951 218.218 145.353 218.572 144.849C218.926 144.344 219.421 143.954 219.994 143.727C220.567 143.5 221.194 143.445 221.798 143.57C222.402 143.695 222.956 143.994 223.392 144.43C223.828 144.866 224.127 145.42 224.252 146.024C224.377 146.628 224.323 147.255 224.095 147.828C223.868 148.402 223.478 148.896 222.974 149.25C222.469 149.605 221.871 149.804 221.255 149.822C220.4 149.8 219.586 149.451 218.98 148.847C218.375 148.242 218.024 147.429 218 146.574V146.567Z" fill="#007AFF"/>
<path d="M267.553 521.785C267.553 532.199 244.875 540.641 216.901 540.641C188.928 540.641 166.243 532.199 166.243 521.785C166.243 511.37 188.921 502.935 216.901 502.935C244.882 502.935 267.553 511.377 267.553 521.785Z" fill="#D2EAFF"/>
<path d="M38.0174 348.92C39.0821 344.143 46.7801 336.554 59.0096 347.351C73.6413 360.263 88.273 366.869 114.97 358.802L119.468 366.93C119.468 366.93 95.8482 388.857 53.9527 369.701C41.7368 364.105 36.2772 356.809 38.0174 348.92Z" fill="#14AFFF"/>
<path d="M192.19 424.829L134.769 475.965C127.017 482.826 116.865 486.341 106.531 485.741C96.196 485.142 86.5188 480.476 79.613 472.764V472.764C72.7508 465.014 69.235 454.862 69.8334 444.528C70.4318 434.193 75.0959 424.515 82.8068 417.609L140.228 366.473C147.98 359.611 158.132 356.097 168.466 356.696C178.801 357.296 188.478 361.962 195.384 369.673V369.673C202.248 377.423 205.765 387.575 205.166 397.91C204.568 408.245 199.902 417.923 192.19 424.829Z" fill="#33497F"/>
<path d="M216.089 514.974C212.145 518.467 206.979 520.257 201.719 519.953C196.46 519.649 191.534 517.275 188.02 513.35L138.065 457.252C134.571 453.307 132.78 448.14 133.085 442.879C133.389 437.618 135.763 432.692 139.689 429.176V429.176C143.635 425.685 148.803 423.897 154.063 424.202C159.323 424.508 164.249 426.882 167.765 430.807L217.72 486.905C221.211 490.85 222.999 496.016 222.693 501.276C222.388 506.535 220.013 511.459 216.089 514.974V514.974Z" fill="#33497F"/>
<path d="M180.104 466.718L167.881 490.733L154.211 475.385L180.104 466.718Z" fill="#006EEC"/>
<path d="M206.303 481.95C204.361 483.67 201.818 484.552 199.228 484.403C196.638 484.253 194.213 483.084 192.483 481.152L168.979 454.755C167.261 452.814 166.381 450.271 166.53 447.684C166.68 445.096 167.847 442.672 169.778 440.942C171.719 439.224 174.261 438.343 176.849 438.493C179.437 438.642 181.86 439.81 183.591 441.74L207.101 468.137C208.818 470.079 209.697 472.621 209.547 475.208C209.398 477.796 208.231 480.219 206.303 481.95V481.95Z" fill="#1A2D66"/>
<path d="M205.381 468.888C206.648 467.753 207.413 466.163 207.512 464.465C207.61 462.767 207.033 461.099 205.907 459.825L191.732 443.904C190.597 442.637 189.007 441.872 187.309 441.773C185.612 441.675 183.944 442.252 182.67 443.378V443.378C181.402 444.512 180.635 446.103 180.536 447.801C180.438 449.499 181.016 451.168 182.144 452.441L196.318 468.363C197.454 469.629 199.044 470.394 200.742 470.493C202.439 470.591 204.107 470.014 205.381 468.888V468.888Z" fill="#13C9E7"/>
<path d="M154.464 278.423C154.464 278.423 131.854 346.184 79.7697 390.42C66.3801 402.342 73.812 432.534 96.3328 457.86C118.854 483.185 148.022 494.029 161.404 482.121C211.36 435.489 281.277 420.857 281.277 420.857L237.259 332.384L154.464 278.423Z" fill="#D4E4FF"/>
<g style="mix-blend-mode:multiply" opacity="0.3">
<path d="M154.464 278.423C154.464 278.423 150.758 289.527 142.862 305.68C153.734 328.883 169.328 352.571 189.33 375.037C209.333 397.504 231.089 415.732 252.859 429.204C269.812 423.259 281.27 420.857 281.27 420.857L237.259 332.384L154.464 278.423Z" fill="#86C0FF"/>
</g>
<path d="M162.762 248.737C135.908 272.622 147.585 328.133 189.378 375.038C231.171 421.942 284.921 439.959 311.769 416.039C338.616 392.119 326.946 336.643 285.153 289.738C243.36 242.833 189.624 224.817 162.762 248.737Z" fill="#33497F"/>
<path d="M301.509 402.942C322.306 384.425 310.776 337.528 275.755 298.194C240.734 258.86 195.485 241.984 174.688 260.501C153.89 279.018 165.421 325.915 200.441 365.249C235.462 404.583 280.712 421.459 301.509 402.942Z" fill="#1A2D66"/>
<path d="M195.513 252.954C187.324 253.166 180.131 255.568 174.664 260.461C153.87 278.976 165.404 325.874 200.427 365.21C174.61 336.186 174.18 291.868 195.513 252.954Z" fill="#1A2258"/>
<path d="M200.427 365.183C235.45 404.512 280.703 421.389 301.498 402.868C306.957 398.002 310.178 391.157 311.338 383.022C270.221 399.715 226.251 394.173 200.427 365.183Z" fill="#1A2258"/>
<path d="M169.478 314.497C175.258 330.965 185.781 348.729 200.427 365.183C215.489 382.094 232.434 394.835 248.519 402.417L270.76 345.419L240.958 316.347L227.247 298.071L170.986 314.068C170.474 314.204 169.969 314.341 169.478 314.497Z" fill="#FF5F49"/>
<path d="M180.035 311.508L170.986 314.067C170.474 314.19 169.969 314.327 169.478 314.484C175.258 330.951 185.781 348.715 200.427 365.169C215.489 382.08 232.434 394.822 248.519 402.404L252.395 392.474C190.511 380.163 181.318 329.368 180.035 311.508Z" fill="#FFA11C"/>
<path d="M260.121 312.02C272.05 325.417 275.981 341.366 268.897 347.705C261.813 354.045 246.376 348.265 234.468 334.869C222.559 321.472 218.601 305.523 225.684 299.183C232.768 292.843 248.185 298.631 260.121 312.02Z" fill="#FFBC3A"/>
<path d="M258.531 313.44C266.959 322.905 269.73 334.186 264.727 338.643C259.725 343.099 248.84 339.038 240.412 329.573C231.983 320.107 229.213 308.833 234.215 304.377C239.217 299.92 250.103 303.981 258.531 313.44Z" fill="#33497F"/>
<path d="M253.617 317.814C257.48 322.148 258.749 327.314 256.456 329.354C254.163 331.395 249.181 329.532 245.325 325.205C241.469 320.878 240.193 315.705 242.486 313.665C244.779 311.624 249.761 313.481 253.617 317.814Z" fill="#13C9E7"/>
<path opacity="0.54" d="M267.58 304.67C278.315 316.722 281.85 331.102 275.476 336.745C269.102 342.389 255.228 337.25 244.493 325.198C233.758 313.146 230.223 298.767 236.597 293.089C242.971 287.411 256.845 292.611 267.58 304.67Z" fill="#6AFFFF"/>
<path opacity="0.54" d="M302.573 333.822C312.665 324.837 307.071 302.081 290.078 282.995C273.085 263.909 251.129 255.721 241.037 264.706C230.945 273.691 236.54 296.447 253.532 315.533C270.525 334.619 292.482 342.807 302.573 333.822Z" fill="#6AFFFF"/>
<path opacity="0.54" d="M287.193 284.49C293.158 291.192 295.123 299.183 291.581 302.336C288.04 305.489 280.328 302.616 274.363 295.915C268.399 289.213 266.433 281.228 269.975 278.075C273.517 274.922 281.222 277.795 287.193 284.49Z" fill="#6AFFFF"/>
<path d="M193.029 472C192.724 472.27 192.325 472.409 191.919 472.386C191.512 472.363 191.131 472.18 190.859 471.877L186.641 467.141C186.371 466.836 186.233 466.437 186.256 466.031C186.279 465.624 186.461 465.243 186.764 464.971V464.971C187.069 464.701 187.468 464.562 187.875 464.585C188.281 464.608 188.662 464.791 188.934 465.094L193.152 469.83C193.422 470.135 193.561 470.534 193.538 470.94C193.515 471.347 193.332 471.728 193.029 472Z" fill="#13C9E7"/>
<path d="M194.346 476.293C194.58 476.555 194.885 476.741 195.225 476.829C195.565 476.918 195.923 476.903 196.255 476.787C196.586 476.672 196.876 476.461 197.087 476.18C197.298 475.9 197.422 475.564 197.442 475.213C197.462 474.863 197.378 474.514 197.2 474.212C197.022 473.909 196.758 473.667 196.442 473.514C196.126 473.361 195.772 473.306 195.424 473.355C195.077 473.403 194.751 473.554 194.489 473.788C194.138 474.101 193.926 474.541 193.899 475.011C193.872 475.48 194.033 475.941 194.346 476.293V476.293Z" fill="#13C9E7"/>
<path d="M86.7785 384.141C85.6456 385.206 84.5082 386.257 83.3662 387.294C83.3662 429.204 107.9 466.718 164.98 478.947C166.147 477.91 167.328 476.9 168.509 475.897C118.062 461.477 91.5556 435.543 86.7785 384.141Z" fill="#1A2D66"/>
<path d="M119.598 345.658C112.796 355.547 105.291 364.932 97.1384 373.741C100.892 417.049 131.486 456.133 180.001 466.793C189.692 459.713 199.88 453.34 210.487 447.725C156.389 435.544 125.897 395.006 119.598 345.658Z" fill="#1A2D66"/>
<path d="M384.538 377.918C384.535 379.377 383.953 380.776 382.921 381.808C381.889 382.84 380.49 383.421 379.031 383.425H343.81C342.35 383.421 340.951 382.84 339.919 381.808C338.887 380.776 338.306 379.377 338.302 377.918V377.918C338.306 376.457 338.887 375.058 339.919 374.025C340.951 372.992 342.349 372.409 343.81 372.403H379.031C380.491 372.409 381.89 372.992 382.922 374.025C383.954 375.058 384.535 376.457 384.538 377.918V377.918Z" fill="#6AFFFF"/>
<path d="M373.209 337.012C373.927 338.28 374.114 339.78 373.73 341.186C373.347 342.592 372.424 343.79 371.162 344.518L340.657 362.132C339.388 362.85 337.888 363.037 336.482 362.653C335.076 362.27 333.879 361.347 333.15 360.085V360.085C332.433 358.817 332.245 357.316 332.629 355.91C333.012 354.505 333.935 353.307 335.197 352.578L365.703 334.971C366.97 334.252 368.47 334.062 369.876 334.445C371.283 334.827 372.481 335.75 373.209 337.012V337.012Z" fill="#6AFFFF"/>
<path d="M373.209 421.151C373.927 419.882 374.114 418.382 373.73 416.976C373.347 415.57 372.424 414.373 371.162 413.644L340.657 396.037C339.392 395.317 337.895 395.124 336.49 395.501C335.084 395.878 333.884 396.794 333.15 398.05V398.05C332.433 399.318 332.245 400.819 332.629 402.225C333.012 403.63 333.935 404.828 335.197 405.557L365.703 423.171C366.967 423.892 368.466 424.084 369.872 423.706C371.278 423.328 372.477 422.409 373.209 421.151Z" fill="#6AFFFF"/>
<path d="M108.59 48.7926H74.5491V90.579H108.59V48.7926Z" fill="#131637"/>
<path d="M77.4289 98.4135C84.2848 98.4135 89.8427 92.8556 89.8427 85.9997C89.8427 79.1438 84.2848 73.5859 77.4289 73.5859C70.573 73.5859 65.0151 79.1438 65.0151 85.9997C65.0151 92.8556 70.573 98.4135 77.4289 98.4135Z" fill="#131637"/>
<path d="M118.123 85.9997C118.123 88.4549 117.395 90.855 116.031 92.8964C114.667 94.9379 112.728 96.5289 110.46 97.4685C108.192 98.4081 105.696 98.6539 103.288 98.1749C100.88 97.6959 98.6679 96.5137 96.9318 94.7776C95.1957 93.0415 94.0134 90.8295 93.5344 88.4215C93.0554 86.0135 93.3013 83.5175 94.2408 81.2492C95.1804 78.9808 96.7715 77.0421 98.8129 75.678C100.854 74.314 103.254 73.5859 105.71 73.5859C107.34 73.585 108.955 73.9055 110.461 74.5291C111.968 75.1526 113.337 76.0669 114.49 77.2198C115.642 78.3727 116.557 79.7416 117.18 81.2481C117.804 82.7546 118.124 84.3692 118.123 85.9997V85.9997Z" fill="#131637"/>
<path d="M122.184 94.7828C122.184 97.4727 121.386 100.102 119.891 102.338C118.396 104.574 116.271 106.317 113.786 107.345C111.3 108.373 108.565 108.641 105.928 108.114C103.29 107.587 100.868 106.29 98.9674 104.386C97.0673 102.482 95.7747 100.057 95.2533 97.4181C94.7318 94.7793 95.0049 92.0451 96.038 89.5615C97.0711 87.0779 98.8178 84.9567 101.057 83.4662C103.296 81.9757 105.927 81.183 108.617 81.1884C112.218 81.1938 115.67 82.6287 118.214 85.1777C120.758 87.7268 122.186 91.1815 122.184 94.7828V94.7828Z" fill="#131637"/>
<path d="M86.3145 94.7828C86.3145 97.4715 85.5173 100.1 84.0235 102.335C82.5297 104.571 80.4066 106.313 77.9225 107.342C75.4385 108.371 72.7051 108.64 70.068 108.116C67.431 107.591 65.0087 106.297 63.1075 104.395C61.2063 102.494 59.9115 100.072 59.3869 97.4349C58.8624 94.7978 59.1316 92.0645 60.1606 89.5804C61.1895 87.0964 62.9319 84.9732 65.1675 83.4794C67.4031 81.9857 70.0314 81.1884 72.7202 81.1884C76.3256 81.1884 79.7834 82.6206 82.3329 85.1701C84.8823 87.7195 86.3145 91.1773 86.3145 94.7828V94.7828Z" fill="#131637"/>
<path d="M108.098 75.8516C109.802 75.8516 111.183 74.4705 111.183 72.7669C111.183 71.0633 109.802 69.6823 108.098 69.6823C106.394 69.6823 105.013 71.0633 105.013 72.7669C105.013 74.4705 106.394 75.8516 108.098 75.8516Z" fill="#131637"/>
<path d="M77.579 72.7669C77.5804 73.3773 77.4006 73.9744 77.0625 74.4825C76.7244 74.9907 76.2431 75.3871 75.6796 75.6217C75.116 75.8562 74.4956 75.9182 73.8967 75.8C73.2979 75.6817 72.7477 75.3885 72.3156 74.9574C71.8835 74.5262 71.589 73.9766 71.4694 73.3781C71.3499 72.7795 71.4106 72.1589 71.6438 71.5949C71.8771 71.0308 72.2725 70.5487 72.7799 70.2094C73.2873 69.8702 73.884 69.6891 74.4943 69.6891C75.3113 69.6891 76.0948 70.0131 76.6731 70.5902C77.2514 71.1672 77.5772 71.95 77.579 72.7669V72.7669Z" fill="#131637"/>
<path d="M79.4626 81.7411C79.4626 81.7411 60.6133 96.6799 57.2079 115.707C52.9562 139.422 69.2122 149.679 69.2122 149.679L71.2049 137.722C71.2049 137.722 65.7454 130.099 66.653 123.609C67.8337 115.27 74.2282 109.189 74.2282 109.189C74.2282 109.189 82.5951 96.4274 79.4626 81.7411Z" fill="#14AFFF"/>
<path d="M74.9311 98.5157L78.7392 82.3962C78.7392 82.3962 63.7253 94.9465 67.2331 120.893C68.6004 116.496 70.996 112.489 74.2214 109.203C74.2214 109.203 74.3033 109.012 74.4398 108.65L74.9311 98.5157Z" fill="#0091F4"/>
<path d="M99.9091 79.9872C99.9091 79.9872 95.0773 87.4942 96.2375 100.133C96.2375 100.133 132.489 98.7682 154.928 62.4005L149.243 57.1456C149.243 57.1456 122.423 83.6247 99.9091 79.9872Z" fill="#14AFFF"/>
<path d="M152.123 55.4192C152.123 55.4192 152.348 51.536 152.915 50.294C152.915 50.294 154.798 43.5718 155.16 42.5482C155.16 42.5482 156.798 42.3025 156.818 44.3225C156.775 45.8389 156.571 47.3464 156.211 48.8199C157.404 47.6965 158.423 46.4015 159.234 44.9777C160.053 43.2101 161.78 39.7774 162.913 39.3543C164.045 38.9312 164.093 40.2005 164.093 40.2005C164.093 40.2005 161.445 45.469 160.886 46.6019C160.394 47.6051 160.947 47.5505 160.947 47.5505L166.113 41.3061C166.898 40.3575 167.717 40.4394 168.297 41.3948C168.297 41.3948 165.977 44.2406 164.707 46.1105C164.264 46.7589 162.36 48.697 163.124 49.1543C163.124 49.1543 167.348 45.005 167.976 44.2202C168.082 44.0389 168.243 43.8963 168.436 43.8131C168.628 43.7299 168.842 43.7106 169.047 43.7579C169.251 43.8051 169.435 43.9166 169.571 44.0759C169.708 44.2352 169.79 44.4341 169.805 44.6433L164.503 50.7171C164.503 50.7171 164.216 51.2084 164.598 51.2903C164.98 51.3722 168.202 49.4614 168.495 49.1679C168.788 48.8745 169.785 48.035 170.351 48.9427C170.351 48.9427 170.501 49.2771 169.573 50.0824C168.645 50.8877 164.4 54.8254 164.4 54.8254C162.566 56.7551 160.322 58.2498 157.835 59.1999C153.775 60.7013 152.505 59.5207 154.832 60.3533L153.74 58.265L152.123 55.4192Z" fill="#FFCDA9"/>
<path d="M157.855 59.3158L152.075 54.2179L149.25 57.1115L154.941 62.3663L157.855 59.3158Z" fill="#0ED0E9"/>
<path d="M101.11 80.2058C101.11 80.2058 109.299 84.7646 114.472 95.9022C112.524 96.5212 110.618 97.2666 108.767 98.1338L103.915 92.5445" fill="#0091F4"/>
<path d="M112.561 103.928C112.561 95.172 105.013 79.3596 98.066 79.3596H85.2837C74.8764 79.3596 69.5874 100.147 69.5874 103.621C69.5874 106.446 73.5388 109.046 73.6821 112.295C74.1393 121.037 73.4023 131.744 74.4601 143.503C74.4601 143.503 78.043 150.764 91.6373 149.236C105.239 150.764 106.481 144.145 106.481 144.145C107.545 132.297 107.996 120.798 108.446 112.008C108.965 108.65 112.561 107.593 112.561 103.928Z" fill="#0ED0E9"/>
<path d="M99.1446 100.706H108.808V97.8674H99.1446V100.706Z" fill="#14AFFF"/>
<path d="M92.8725 85.1193H91.18L91.1869 85.6447L90.4703 85.1193L85.2837 126.401L91.6714 127.909L98.066 126.401L92.8725 85.1193Z" fill="#001F78"/>
<g style="mix-blend-mode:multiply" opacity="0.51">
<path d="M73.8801 117.754C74.1872 122.77 74.6035 128.202 75.0881 134.092L85.1815 135.457L109.183 132.966C110.31 131.927 111.355 130.802 112.309 129.601C112.643 125.343 112.93 121.351 113.162 117.59C94.0465 123.862 78.4867 119.406 73.8801 117.754Z" fill="#3BD2FF"/>
</g>
<path d="M88.3567 84.3386L91.6622 81.0331L94.9678 84.3386L92.1545 87.152C92.0265 87.28 91.8529 87.3519 91.6719 87.3519C91.4909 87.3519 91.3173 87.28 91.1894 87.152L88.3664 84.329L88.3567 84.3386Z" fill="#003591"/>
<path d="M98.1411 58.5721C98.1425 59.4734 98.411 60.3541 98.9127 61.1029C99.4144 61.8517 100.127 62.4349 100.96 62.7789C101.793 63.1229 102.71 63.2122 103.593 63.0356C104.477 62.8589 105.289 62.4242 105.926 61.7864C106.563 61.1485 106.996 60.3362 107.172 59.4521C107.347 58.568 107.256 57.6517 106.911 56.8191C106.566 55.9865 105.981 55.2749 105.232 54.7743C104.482 54.2737 103.601 54.0065 102.7 54.0065C102.101 54.0065 101.507 54.1246 100.954 54.3541C100.4 54.5837 99.8973 54.9201 99.4739 55.3441C99.0505 55.7682 98.7149 56.2715 98.4862 56.8254C98.2575 57.3793 98.1402 57.9728 98.1411 58.5721Z" fill="#FFB59C"/>
<path d="M99.6494 58.572C99.6494 59.177 99.8289 59.7684 100.165 60.2713C100.501 60.7743 100.979 61.1661 101.538 61.3973C102.097 61.6285 102.713 61.6887 103.306 61.5701C103.899 61.4516 104.444 61.1598 104.871 60.7315C105.298 60.3032 105.589 59.7578 105.706 59.1643C105.823 58.5708 105.762 57.9558 105.529 57.3973C105.297 56.8387 104.904 56.3617 104.4 56.0266C103.897 55.6915 103.305 55.5133 102.7 55.5147C102.299 55.5147 101.902 55.5938 101.531 55.7475C101.16 55.9013 100.824 56.1266 100.541 56.4105C100.257 56.6945 100.033 57.0316 99.8797 57.4025C99.7268 57.7734 99.6485 58.1708 99.6494 58.572V58.572Z" fill="#FF9F7C"/>
<path d="M75.7637 58.5721C75.765 59.4734 76.0336 60.3541 76.5353 61.1029C77.037 61.8517 77.7495 62.4349 78.5826 62.7789C79.4157 63.1229 80.3321 63.2122 81.216 63.0356C82.0998 62.8589 82.9115 62.4242 83.5484 61.7864C84.1852 61.1485 84.6188 60.3362 84.7941 59.4521C84.9694 58.568 84.8788 57.6517 84.5336 56.8191C84.1883 55.9865 83.604 55.2749 82.8545 54.7743C82.1049 54.2737 81.2238 54.0065 80.3224 54.0065C79.7232 54.0065 79.1299 54.1246 78.5763 54.3541C78.0228 54.5837 77.5199 54.9201 77.0965 55.3441C76.6731 55.7682 76.3374 56.2715 76.1087 56.8254C75.88 57.3793 75.7628 57.9728 75.7637 58.5721Z" fill="#FFB59C"/>
<path d="M77.272 58.572C77.272 59.177 77.4515 59.7684 77.7877 60.2713C78.124 60.7743 78.6019 61.1661 79.1609 61.3973C79.72 61.6285 80.3351 61.6887 80.9283 61.5701C81.5216 61.4516 82.0663 61.1598 82.4937 60.7315C82.921 60.3032 83.2116 59.7578 83.3288 59.1643C83.446 58.5708 83.3845 57.9558 83.152 57.3973C82.9196 56.8387 82.5266 56.3617 82.023 56.0266C81.5193 55.6915 80.9275 55.5133 80.3225 55.5147C79.9213 55.5147 79.5241 55.5938 79.1535 55.7475C78.783 55.9013 78.4464 56.1266 78.163 56.4105C77.8797 56.6945 77.6551 57.0316 77.5022 57.4025C77.3493 57.7734 77.2711 58.1708 77.272 58.572V58.572Z" fill="#FF9F7C"/>
<path d="M99.0217 66.4747H84.3081V81.1884H99.0217V66.4747Z" fill="#FFB899"/>
<path d="M92.9204 39.2723L90.9481 40.1322L90.409 39.2723L79.3806 47.5914V62.7213C81.6395 72.3848 91.6647 76.3703 91.6647 76.3703C91.6647 76.3703 101.69 72.3848 103.949 62.7213V47.5914L92.9204 39.2723Z" fill="#FFCDA9"/>
<path d="M93.3369 63.5061L91.6649 56.5247L89.9929 63.5061H93.3369Z" fill="#FF907D"/>
<path d="M91.665 71.0404C93.0188 71.0404 94.3172 70.5026 95.2746 69.5453C96.2319 68.5879 96.7697 67.2895 96.7697 65.9357H86.533C86.5329 66.6083 86.6659 67.2744 86.9241 67.8955C87.1824 68.5166 87.5608 69.0806 88.0377 69.5549C88.5146 70.0293 89.0806 70.4048 89.7031 70.6597C90.3256 70.9146 90.9923 71.044 91.665 71.0404V71.0404Z" fill="#D4E4FF"/>
<path d="M91.6716 81.1884L86.8945 85.9997C86.8945 85.9997 79.6332 82.9901 83.9531 76.1178C85.9309 78.5752 88.6309 80.349 91.6716 81.1884Z" fill="#14AFFF"/>
<path d="M91.6716 81.1884L96.4829 85.9997C96.4829 85.9997 103.737 82.9901 99.4175 76.1178C97.4341 78.5817 94.7232 80.3563 91.6716 81.1884V81.1884Z" fill="#14AFFF"/>
<path d="M66.025 111.23H117.318C117.694 111.23 118.055 111.379 118.322 111.645C118.588 111.912 118.737 112.273 118.737 112.649V147.686H64.6055V112.642C64.6073 112.267 64.7576 111.908 65.0236 111.643C65.2896 111.378 65.6497 111.23 66.025 111.23Z" fill="#D4E4FF"/>
<path d="M91.5554 145.093C83.9033 137.859 74.6717 132.506 64.5918 129.458V134.495L91.5554 145.093Z" fill="url(#paint0_linear_27_1752)"/>
<path d="M91.7739 145.093C99.426 137.859 108.658 132.506 118.737 129.458V134.495L91.7739 145.093Z" fill="url(#paint1_linear_27_1752)"/>
<path d="M54.3416 158.606V165.635C54.3416 165.635 92.9478 161.472 120.853 155.227C120.853 155.227 133.56 151.31 149.427 142.466C149.427 142.466 147.605 129.199 131.998 129.458C116.39 129.717 92.3199 144.82 92.3199 144.82L54.3416 158.606Z" fill="#002A88"/>
<path d="M91.7739 160.612L90.7844 160.428L62.2921 155.227L54.3416 158.612V165.635" fill="#001F5F"/>
<path d="M120.853 155.227L129.35 147.686L149.427 142.466C149.427 142.466 139.122 151.645 120.853 155.227Z" fill="#001F5F"/>
<path d="M128.804 158.606V165.635C128.804 165.635 90.1976 161.472 62.2922 155.227C51.2344 152.248 40.5702 147.964 30.5242 142.466C30.5242 142.466 32.3463 129.199 47.9539 129.458C63.5615 129.717 90.8322 144.82 90.8322 144.82L128.804 158.606Z" fill="#003591"/>
<path d="M62.2922 155.227L53.7957 147.686L30.5242 142.466C40.255 148.605 51.0185 152.929 62.2922 155.227V155.227Z" fill="#001F5F"/>
<path d="M54.3416 165.635C54.3416 165.635 47.4012 166.87 30.5242 167.812V162.031L48.7046 156.278L54.3416 158.605V165.635Z" fill="#000F1F"/>
<path d="M128.804 165.635C128.804 165.635 135.744 166.87 152.621 167.812V162.031L134.441 156.278L128.804 158.605V165.635Z" fill="#000F1F"/>
<path d="M97.9847 43.8175C97.9847 43.8175 94.47 53.3718 82.6364 51.2425C82.6364 51.2425 83.0049 54.0747 78.8624 55.2417V52.6893L75.0953 50.0823L74.72 48.8539L77.2245 40.8829L85.3457 39.2723L91.7607 40.4052H102.127L106.345 44.1246L104.461 52.8053V55.2212C104.461 55.2212 101.322 54.2931 101.643 50.444C101.643 50.4099 97.8755 47.1819 97.9847 43.8175Z" fill="#131637"/>
<path d="M74.5491 49.0451C74.5491 49.0451 74.4945 26.2444 98.0321 36.0785C98.0321 36.0785 108.596 33.8128 108.596 47.4072V49.0178L108.098 50.9832L100.789 46.3562L95.3911 42.4594L89.9315 43.0327L74.5491 49.0451Z" fill="#131637"/>
<path d="M123.794 0.904907H183.127C187.591 0.906716 191.872 2.68109 195.029 5.83807C198.186 8.99504 199.961 13.2763 199.963 17.7409V17.7409C199.961 22.205 198.186 26.4855 195.029 29.6414C191.872 32.7973 187.591 34.5702 183.127 34.5702H133.069L121.733 44.4998V34.3654C119.36 33.8892 117.225 32.6058 115.691 30.7334C114.157 28.861 113.319 26.5151 113.319 24.0946V11.3805C113.319 8.60221 114.422 5.9377 116.387 3.97314C118.352 2.00858 121.016 0.904907 123.794 0.904907V0.904907Z" fill="#33497F"/>
<path d="M134.059 18.0686C134.057 19.1022 133.75 20.1123 133.174 20.971C132.599 21.8298 131.782 22.4988 130.827 22.8934C129.872 23.288 128.821 23.3905 127.807 23.1881C126.793 22.9856 125.863 22.4872 125.132 21.7558C124.402 21.0245 123.905 20.093 123.703 19.0791C123.502 18.0653 123.606 17.0145 124.002 16.0597C124.398 15.1049 125.068 14.2889 125.928 13.7148C126.787 13.1407 127.797 12.8342 128.831 12.8342C129.518 12.8342 130.199 12.9697 130.833 13.2328C131.468 13.4959 132.044 13.8816 132.53 14.3678C133.015 14.8539 133.4 15.431 133.663 16.066C133.925 16.701 134.06 17.3815 134.059 18.0686V18.0686Z" fill="#0ED0E9"/>
<path d="M152.123 18.0686C152.122 19.1022 151.814 20.1123 151.239 20.971C150.664 21.8298 149.847 22.4988 148.891 22.8934C147.936 23.288 146.885 23.3905 145.872 23.1881C144.858 22.9856 143.927 22.4872 143.197 21.7558C142.466 21.0245 141.969 20.093 141.768 19.0791C141.567 18.0653 141.671 17.0145 142.067 16.0597C142.462 15.1049 143.132 14.2889 143.992 13.7148C144.851 13.1407 145.862 12.8342 146.896 12.8342C147.583 12.8342 148.263 12.9697 148.898 13.2328C149.532 13.4959 150.109 13.8816 150.594 14.3678C151.08 14.8539 151.465 15.431 151.727 16.066C151.989 16.701 152.124 17.3815 152.123 18.0686V18.0686Z" fill="#0ED0E9"/>
<path d="M170.194 18.0686C170.194 19.1039 169.887 20.1159 169.312 20.9767C168.737 21.8375 167.92 22.5084 166.963 22.9046C166.007 23.3007 164.954 23.4044 163.939 23.2024C162.923 23.0005 161.991 22.5019 161.259 21.7699C160.527 21.0378 160.028 20.1052 159.826 19.0898C159.624 18.0744 159.728 17.022 160.124 16.0655C160.52 15.109 161.191 14.2915 162.052 13.7164C162.913 13.1412 163.925 12.8342 164.96 12.8342C166.348 12.8342 167.68 13.3857 168.661 14.3673C169.643 15.349 170.194 16.6804 170.194 18.0686Z" fill="#0ED0E9"/>
<path opacity="0.48" d="M383.235 262.959C387.769 262.959 391.445 259.283 391.445 254.749C391.445 250.215 387.769 246.539 383.235 246.539C378.701 246.539 375.025 250.215 375.025 254.749C375.025 259.283 378.701 262.959 383.235 262.959Z" fill="#A2FFFF"/>
<path d="M365.555 217.404C382.882 210.227 391.11 190.362 383.933 173.035C376.756 155.707 356.891 147.479 339.564 154.656C322.236 161.833 314.008 181.698 321.185 199.025C328.363 216.353 348.227 224.581 365.555 217.404Z" fill="#E9280E"/>
<path d="M349.679 203.586L367.566 190.619C368.294 190.091 368.888 189.397 369.297 188.595C369.706 187.793 369.919 186.906 369.919 186.006C369.919 185.106 369.706 184.218 369.297 183.416C368.888 182.615 368.294 181.921 367.566 181.393L349.679 168.426C348.829 167.811 347.826 167.443 346.78 167.362C345.734 167.281 344.686 167.491 343.752 167.968C342.818 168.446 342.034 169.172 341.486 170.067C340.939 170.962 340.649 171.99 340.65 173.039V198.931C340.642 199.984 340.926 201.018 341.47 201.919C342.014 202.82 342.798 203.552 343.733 204.034C344.669 204.517 345.72 204.73 346.769 204.651C347.819 204.572 348.826 204.203 349.679 203.586Z" fill="#D4E4FF"/>
<path opacity="0.54" d="M523.799 451.854C523.799 460.842 504.212 468.13 480.061 468.13C455.909 468.13 436.322 460.842 436.322 451.854C436.322 442.866 455.902 435.543 480.061 435.543C504.219 435.543 523.799 442.859 523.799 451.854Z" fill="#6AFFFF"/>
<path opacity="0.58" d="M480.061 464.459C504.217 464.459 523.799 457.169 523.799 448.176C523.799 439.183 504.217 431.892 480.061 431.892C455.905 431.892 436.323 439.183 436.323 448.176C436.323 457.169 455.905 464.459 480.061 464.459Z" fill="#8EFFFF"/>
<path d="M462.003 277.481L412.744 228.222C409.85 235.689 404.684 242.058 397.976 246.43L445.522 293.976C447.715 296.156 450.681 297.379 453.773 297.379C456.864 297.379 459.831 296.156 462.023 293.976V293.976C464.2 291.782 465.419 288.815 465.416 285.725C465.412 282.634 464.185 279.67 462.003 277.481V277.481Z" fill="#1A2D66"/>
<path d="M422.591 225.11C421.483 224.01 420.044 223.304 418.496 223.1C416.947 222.897 415.375 223.207 414.02 223.984C411.624 234.269 404.322 243.27 394.973 248.211C393.72 248.866 392.42 249.424 391.083 249.883C391.142 251.265 391.603 252.6 392.409 253.724C393.216 254.848 394.333 255.712 395.624 256.209C396.915 256.707 398.323 256.818 399.675 256.527C401.027 256.236 402.265 255.556 403.237 254.571L422.591 235.21C423.925 233.868 424.674 232.052 424.674 230.16C424.674 228.268 423.925 226.453 422.591 225.11V225.11Z" fill="#FFBC3A"/>
<path d="M352.558 107.415C340.469 107.412 328.542 110.198 317.705 115.555C306.867 120.912 297.411 128.696 290.071 138.302C282.731 147.908 277.706 159.078 275.385 170.942C273.065 182.807 273.512 195.047 276.691 206.71C279.871 218.374 285.697 229.147 293.718 238.193C301.739 247.238 311.737 254.312 322.937 258.864C334.136 263.417 346.235 265.325 358.292 264.441C370.348 263.557 382.039 259.904 392.455 253.766C395.115 252.204 397.679 250.484 400.132 248.614C406.356 243.878 411.841 238.243 416.409 231.894C418.209 229.404 419.855 226.806 421.336 224.114C427.96 212.145 431.347 198.655 431.162 184.976C430.977 171.298 427.226 157.904 420.281 146.119C413.335 134.334 403.435 124.565 391.558 117.777C379.681 110.989 366.238 107.418 352.558 107.415ZM352.558 119.549C365.707 119.553 378.56 123.456 389.49 130.764C400.421 138.072 408.939 148.457 413.968 160.607C418.997 172.756 420.31 186.123 417.742 199.019C415.174 211.914 408.839 223.759 399.54 233.054C390.24 242.35 378.393 248.679 365.497 251.242C352.6 253.805 339.233 252.486 327.086 247.453C314.939 242.419 304.557 233.897 297.254 222.963C289.95 212.029 286.052 199.175 286.054 186.026C286.061 168.395 293.072 151.488 305.543 139.025C318.015 126.562 334.927 119.564 352.558 119.569V119.549Z" fill="#D4E4FF"/>
<path d="M352.558 116.84C338.876 116.84 325.501 120.897 314.124 128.499C302.747 136.1 293.881 146.905 288.644 159.546C283.408 172.187 282.038 186.096 284.708 199.516C287.377 212.935 293.966 225.262 303.641 234.937C313.316 244.612 325.642 251.201 339.062 253.87C352.482 256.54 366.391 255.17 379.032 249.933C391.673 244.697 402.478 235.83 410.079 224.454C417.681 213.077 421.738 199.702 421.738 186.02C421.738 176.935 419.949 167.939 416.472 159.546C412.996 151.152 407.9 143.526 401.476 137.102C395.052 130.678 387.426 125.582 379.032 122.106C370.639 118.629 361.643 116.84 352.558 116.84V116.84ZM352.558 252.504C339.409 252.504 326.555 248.605 315.622 241.299C304.688 233.994 296.167 223.61 291.135 211.462C286.103 199.314 284.786 185.946 287.352 173.049C289.917 160.152 296.249 148.306 305.547 139.008C314.845 129.71 326.691 123.378 339.588 120.813C352.485 118.247 365.852 119.564 378.001 124.596C390.149 129.628 400.533 138.15 407.838 149.083C415.143 160.016 419.043 172.87 419.043 186.02C419.043 194.751 417.325 203.397 413.984 211.464C410.643 219.531 405.746 226.861 399.572 233.035C393.398 239.21 386.069 244.108 378.002 247.449C369.936 250.791 361.29 252.511 352.558 252.511V252.504Z" fill="#DAEBFF"/>
<path opacity="0.22" d="M366.571 160.221C369.955 145.882 361.074 131.514 346.735 128.13C332.396 124.745 318.028 133.626 314.644 147.965C311.259 162.304 320.14 176.672 334.479 180.057C348.819 183.441 363.186 174.56 366.571 160.221Z" fill="#A2FFFF"/>
<path opacity="0.48" d="M378.676 140.043C378.676 141.258 378.316 142.445 377.641 143.455C376.966 144.465 376.007 145.252 374.884 145.717C373.762 146.182 372.527 146.304 371.336 146.067C370.144 145.83 369.05 145.245 368.191 144.386C367.332 143.527 366.747 142.432 366.51 141.241C366.273 140.05 366.394 138.815 366.859 137.692C367.324 136.57 368.111 135.611 369.122 134.936C370.132 134.261 371.319 133.901 372.534 133.901C374.163 133.901 375.725 134.548 376.877 135.7C378.029 136.852 378.676 138.414 378.676 140.043Z" fill="#A2FFFF"/>
<path d="M464.31 207.51L463.784 211.011L467.06 211.366L468.316 208.97L464.31 207.51Z" fill="#D4E4FF"/>
<path d="M471.919 222.524V217.269C471.919 217.269 468.739 217.856 463.784 215.808V211.031C465.09 210.77 466.282 210.109 467.197 209.141L463.784 207.885L464.412 205.367L461.682 203.784L466.064 196.311L466.439 191.909L469.169 193.799L470.431 201.846L471.899 198.699C471.899 198.699 474.499 197.28 475.461 199.832C475.68 200.381 475.753 200.977 475.672 201.562C475.592 202.148 475.361 202.702 475.001 203.171C474.642 203.64 474.168 204.008 473.624 204.239C473.08 204.469 472.485 204.555 471.899 204.487L473.448 213.672H485.773V222.544L471.919 222.524Z" fill="#FFCDA9"/>
<path d="M471.919 198.679L470.458 202.678L469.189 193.806C469.189 193.806 460.638 193.171 460.638 186.258L463.593 186.408C463.593 186.408 460.911 180.505 465.64 176.39L468.527 179.454C468.527 179.454 468.527 173.612 475.085 173.046L476.396 177.264C476.396 177.264 487.445 176.977 492.242 186.279L493.552 184.825L492.972 187.152L495.299 187.876L492.822 188.899C492.822 188.899 498.5 203.852 485.773 213.679V215.651L483.084 213.679H473.447L471.898 204.493C471.898 204.493 475.147 204.493 475.604 201.313C476.027 198.426 473.168 197.983 471.919 198.679Z" fill="#131637"/>
<path d="M488.352 222.524C488.352 222.524 481.234 218.306 469.551 222.524L466.821 227.717L489.164 226.564L488.352 222.524Z" fill="#14AFFF"/>
<path style="mix-blend-mode:multiply" opacity="0.4" d="M467.435 226.557C473.978 223.151 481.554 222.304 488.687 224.182L489.171 226.564L475.092 227.294L467.449 226.557H467.435Z" fill="url(#paint2_linear_27_1752)"/>
<path d="M466.05 196.29L464.412 205.347L461.668 203.763L466.05 196.29Z" fill="#FF7588"/>
<path d="M498.166 231.293C498.166 231.293 509.256 253.657 514.374 279.747C514.374 279.747 510.443 298.542 503.871 307.045C496.569 283.159 491.696 258.018 491.696 258.018L498.166 231.293Z" fill="#14AFFF"/>
<path d="M498.166 231.293C498.166 231.293 485.793 218.381 460.181 228.789L455.943 308.478H503.912C503.912 308.478 506.219 262.884 498.166 231.293Z" fill="#0ED0E9"/>
<path d="M420.496 263.648L412.928 256.421L412.778 260.113L404.739 253.234C405.019 256.595 406.234 259.811 408.247 262.517C410.26 265.224 412.99 267.313 416.129 268.548L420.496 263.648Z" fill="#FFCDA9"/>
<path d="M418.585 261.84L414.491 257.179L410.396 252.511C409.991 252.874 409.728 253.369 409.656 253.908C409.583 254.447 409.705 254.995 410 255.452L412.73 260.113L418.585 261.84Z" fill="#FFCDA9"/>
<path d="M460.181 228.761C460.181 228.761 453.82 261.417 440.39 265.75C430.283 269.012 424.693 265.184 424.693 265.184L418.476 272.288C422.014 275.155 426.153 277.188 430.585 278.235C435.017 279.281 439.628 279.316 444.075 278.335C463.866 274.097 470.049 253.207 470.049 253.207C470.049 253.207 473.045 231.989 460.181 228.761Z" fill="#14AFFF"/>
<path d="M424.741 265.197L420.753 261.712L414.542 268.819L418.53 272.304L424.741 265.197Z" fill="#0ED0E9"/>
<path d="M470.465 449.691V451.608C470.465 451.985 470.316 452.346 470.05 452.612C469.783 452.878 469.422 453.028 469.046 453.028H440.342C440.342 453.028 444.341 445.657 458.243 445.187C462.542 445.986 466.675 447.509 470.465 449.691V449.691Z" fill="#000F1F"/>
<path d="M513.466 446.899V449.745C513.466 450.207 513.283 450.649 512.957 450.976C512.63 451.302 512.188 451.485 511.726 451.485H507.85C507.234 451.486 506.624 451.375 506.048 451.158L490.215 445.186C490.215 445.186 494.46 440.266 503.864 443.398L513.466 446.899Z" fill="#000F1F"/>
<path d="M503.912 308.478L506.219 384.442C507.635 388.276 508.847 392.183 509.85 396.146C514.374 413.316 513.644 447.48 513.644 447.48C513.644 447.48 509.385 451.486 503.871 446.934L489.171 380.736L479.904 336.145L473.762 379.187C473.762 379.187 477.535 389.123 475.863 406.205C474.826 416.858 470.404 449.691 470.404 449.691C470.404 449.691 462.317 449.111 458.891 445.33L455.881 366.364V308.478H503.912Z" fill="#002A88"/>
<path d="M479.904 336.152L483.677 329.279L498.289 321.226L489.512 330.344L491.376 390.679L479.904 336.152Z" fill="#001F5F"/>
<path d="M455.943 308.478L504.083 313.952L503.912 308.478H455.943Z" fill="#001F5F"/>
<path d="M47.7904 310.915C47.6879 312.529 48.0656 314.137 48.8759 315.537C49.6862 316.936 50.8928 318.065 52.3435 318.779C53.7942 319.494 55.4241 319.764 57.0276 319.553C58.6312 319.343 60.1366 318.663 61.354 317.598C62.5715 316.534 63.4465 315.133 63.8687 313.572C64.2909 312.01 64.2414 310.359 63.7265 308.826C63.2115 307.293 62.2542 305.947 60.9751 304.957C59.6961 303.967 58.1527 303.378 56.5394 303.264C55.4618 303.188 54.3798 303.326 53.3558 303.67C52.3317 304.014 51.3858 304.558 50.5726 305.269C49.7594 305.98 49.0949 306.845 48.6174 307.814C48.1399 308.783 47.8588 309.837 47.7904 310.915Z" fill="#131637"/>
<path d="M50.8682 304.117C50.7951 305.223 51.0514 306.325 51.6047 307.285C52.1581 308.245 52.9836 309.019 53.9769 309.51C54.9702 310.001 56.0868 310.186 57.1854 310.043C58.284 309.899 59.3154 309.433 60.1491 308.703C60.9828 307.973 61.5814 307.013 61.8693 305.943C62.1572 304.873 62.1214 303.742 61.7665 302.692C61.4116 301.643 60.7534 300.722 59.8752 300.046C58.997 299.371 57.9383 298.971 56.8328 298.897C56.0983 298.848 55.3613 298.944 54.664 299.179C53.9666 299.415 53.3226 299.786 52.7686 300.271C52.2147 300.756 51.7617 301.345 51.4357 302.005C51.1096 302.665 50.9167 303.383 50.8682 304.117Z" fill="#131637"/>
<path d="M60.0539 302.63C60.0941 303.033 60.0135 303.44 59.8224 303.798C59.6312 304.155 59.3381 304.448 58.9803 304.639C58.6224 304.83 58.216 304.91 57.8124 304.87C57.4088 304.829 57.0264 304.67 56.7135 304.412C56.4007 304.154 56.1716 303.809 56.0553 303.42C55.9389 303.031 55.9406 302.617 56.0601 302.23C56.1796 301.842 56.4116 301.499 56.7265 301.243C57.0414 300.987 57.4252 300.831 57.8291 300.794C58.3671 300.745 58.9029 300.91 59.3196 301.254C59.7364 301.597 60.0003 302.092 60.0539 302.63V302.63Z" fill="#131637"/>
<path d="M60.2995 305.155C60.3397 305.558 60.2591 305.965 60.068 306.322C59.8768 306.68 59.5837 306.973 59.2259 307.164C58.868 307.355 58.4616 307.435 58.058 307.395C57.6544 307.354 57.272 307.195 56.9592 306.937C56.6463 306.679 56.4172 306.333 56.3009 305.945C56.1845 305.556 56.1862 305.142 56.3057 304.754C56.4252 304.367 56.6572 304.023 56.9721 303.768C57.287 303.512 57.6708 303.356 58.0747 303.319C58.6127 303.269 59.1485 303.435 59.5652 303.779C59.982 304.122 60.2459 304.617 60.2995 305.155V305.155Z" fill="#131637"/>
<path d="M57.8289 300.794C57.8289 300.794 55.9863 291.99 44.1253 294.072C44.1253 294.072 34.1479 293.048 29.5687 303.845C31.2753 307.157 32.1136 310.848 32.005 314.573C31.3226 331.293 28.818 349.282 19.4002 363.552C19.2432 363.784 19.0726 363.996 18.9156 364.235C18.124 366.418 17.2709 368.582 16.3633 370.697C19.1545 373.154 23.5563 374.99 30.5719 374.198C38.1607 357.048 41.8664 338.54 41.8664 338.54L48.9161 325.894L56.8803 318.79C56.8803 318.79 64.0256 302.077 57.8289 300.794Z" fill="#131637"/>
<path d="M60.5657 306.656C60.5657 306.82 64.0667 314.914 64.1008 321.158L58.2522 320.892L60.5657 306.656Z" fill="#FF907D"/>
<path d="M57.2012 301.865C57.2012 301.865 68.4958 310.908 58.5661 332.657L50.0014 330.965L49.3189 341.202L38.1609 340.458L38.9525 328.583C40.4817 327.554 41.7596 326.194 42.6917 324.604C43.6238 323.014 44.1862 321.234 44.3371 319.397C44.3371 319.397 38.6181 318.667 39.4712 313.494C40.0171 310.198 44.7397 309.884 45.9408 313.303L45.7156 316.654C45.7156 316.654 48.2475 315.603 48.8071 310.996C48.8071 310.996 54.8263 307.693 52.4104 301.572L57.2012 301.865Z" fill="#FFCDA9"/>
<path d="M56.4575 321.943L61.8284 323.035C61.4525 324.755 60.9716 326.451 60.3884 328.112C55.3178 326.809 56.4575 321.943 56.4575 321.943Z" fill="#D4E4FF"/>
<path d="M58.7501 301.981C58.812 302.624 58.682 303.27 58.3765 303.838C58.071 304.407 57.6037 304.872 57.0338 305.175C56.4639 305.478 55.817 305.605 55.1749 305.54C54.5328 305.475 53.9244 305.221 53.4266 304.81C52.9289 304.399 52.5642 303.85 52.3787 303.232C52.1931 302.614 52.1951 301.955 52.3844 301.338C52.5737 300.721 52.9417 300.174 53.4419 299.766C53.9421 299.358 54.5521 299.108 55.1945 299.047C56.0551 298.965 56.9129 299.228 57.5795 299.778C58.2462 300.329 58.6672 301.121 58.7501 301.981V301.981Z" fill="#131637"/>
<path d="M55.0036 306.424C55.0991 307.411 54.8998 308.403 54.4309 309.276C53.9621 310.15 53.2447 310.864 52.3696 311.329C51.4946 311.795 50.5011 311.99 49.515 311.891C48.5289 311.791 47.5945 311.401 46.83 310.771C46.0655 310.14 45.5052 309.297 45.2202 308.347C44.9351 307.398 44.9381 306.386 45.2286 305.438C45.5192 304.491 46.0843 303.65 46.8525 303.024C47.6207 302.398 48.5574 302.014 49.544 301.92C50.8651 301.794 52.1819 302.198 53.2055 303.043C54.2291 303.887 54.8758 305.103 55.0036 306.424Z" fill="#131637"/>
<path d="M40.986 336.131C35.2466 335.749 29.6846 340.158 30.0668 345.904C32.5236 380.948 20.0825 411.119 20.0825 411.119H58.9821C58.9821 411.119 55.5699 379.794 56.4571 377.488C57.3443 375.181 66.2229 371.974 66.2229 363.095L50.9429 342.048C49.8646 340.349 48.4012 338.928 46.6714 337.9C44.9415 336.872 42.9937 336.266 40.986 336.131V336.131Z" fill="#0ED0E9"/>
<path d="M56.4573 377.487C56.7098 376.805 57.6652 376.047 58.8799 375.092C57.4363 370.837 56.3654 366.464 55.6792 362.023C53.0313 345.931 42.2691 346.941 38.4201 349.964C32.0665 354.953 31.7048 364.07 37.6353 376.136C43.7773 388.659 51.0318 397.183 58.1088 403.004C57.2011 393.552 55.8772 379.03 56.4573 377.487Z" fill="#24E9FF"/>
<path d="M51.5505 343.01L51.9054 343.235L54.8058 344.088C55.4153 344.265 55.9424 344.652 56.2935 345.18C56.6446 345.709 56.797 346.345 56.7235 346.975L56.4232 349.596C58.848 350.552 60.9493 352.18 62.4799 354.29C64.0105 356.4 64.9067 358.903 65.063 361.504" fill="#003C9A"/>
<path d="M37.1372 336.766L37.3556 335.599C35.9907 336.213 44.6578 332.903 50.9705 338.854L51.5505 343.01C47.3489 339.748 42.391 337.6 37.1372 336.766V336.766Z" fill="#006ED4"/>
<path d="M32.783 330.446C32.8921 331.562 33.3297 332.621 34.0404 333.488C34.7511 334.356 35.703 334.993 36.7758 335.32C37.8486 335.646 38.9942 335.647 40.0677 335.323C41.1411 334.999 42.0943 334.363 42.8068 333.497C43.5192 332.631 43.959 331.574 44.0703 330.458C44.1817 329.342 43.9598 328.218 43.4326 327.228C42.9054 326.238 42.0966 325.427 41.1085 324.897C40.1203 324.367 38.9971 324.141 37.8809 324.25C37.1392 324.321 36.4188 324.539 35.7611 324.889C35.1034 325.239 34.5212 325.716 34.0477 326.291C33.5743 326.867 33.2189 327.53 33.0019 328.243C32.7849 328.956 32.7105 329.705 32.783 330.446V330.446Z" fill="#131637"/>
<path d="M29.7256 335.551C29.8063 336.373 30.1285 337.152 30.6518 337.79C31.1751 338.429 31.8759 338.898 32.6656 339.139C33.4554 339.379 34.2987 339.38 35.089 339.142C35.8794 338.903 36.5813 338.436 37.1062 337.798C37.631 337.161 37.9552 336.383 38.0379 335.561C38.1205 334.74 37.9579 333.912 37.5705 333.183C37.1831 332.454 36.5883 331.856 35.8614 331.465C35.1344 331.074 34.3077 330.907 33.4859 330.985C32.3819 331.092 31.3657 331.634 30.6606 332.49C29.9554 333.346 29.6191 334.447 29.7256 335.551V335.551Z" fill="#131637"/>
<path d="M44.1253 294.072C44.1253 294.072 31.6843 292.024 26.7365 310.096C26.7365 310.096 24.9826 341.27 10.2007 354.694C-4.58111 368.118 3.04871 387.861 26.7365 389.69C29.8672 383.451 30.7979 376.337 29.3776 369.503C29.3776 369.503 36.1134 354.892 32.9195 345.221C32.9195 345.221 44.1321 342.533 38.9524 328.556C33.3767 318.169 41.3683 305.353 41.3683 305.353L50.0149 299.566L44.1253 294.072Z" fill="#131637"/>
<path d="M72.6587 539.638C72.6587 547.015 57.3377 553 38.427 553C19.5163 553 4.20215 547.015 4.20215 539.638C4.20215 532.26 19.5232 526.309 38.427 526.309C57.3309 526.309 72.6587 532.253 72.6587 539.638Z" fill="#D2EAFF"/>
<path d="M51.6117 411.119H58.9822L54.8397 538.983H49.3323C49.3323 538.983 39.4095 499.148 42.0711 472.874C44.3436 442.621 39.4641 429.504 39.4641 429.504" fill="#00216C"/>
<path d="M54.9692 411.119L44.3435 471.29L7.22505 528.309L1.53345 525.934C1.53345 525.934 15.2848 484.987 29.937 465.326L22.5188 435.543C20.1109 427.631 19.2898 419.322 20.1029 411.091L54.9692 411.119Z" fill="#002A88"/>
<path d="M1.53388 525.934L0.708101 527.094C0.546968 527.325 0.479198 527.608 0.518453 527.887C0.557708 528.165 0.701071 528.418 0.919659 528.596L17.4963 541.508C17.4963 541.508 18.3494 535.243 10.5217 528.705C7.71335 527.257 4.67019 526.319 1.53388 525.934V525.934Z" fill="#000F1F"/>
<path d="M48.486 537.113V538.593C48.4805 538.871 48.5851 539.14 48.7769 539.34C48.9687 539.541 49.2322 539.658 49.5097 539.665H70.1538C70.1538 539.665 67.2807 534.103 57.276 533.748C54.1721 534.348 51.1971 535.486 48.486 537.113V537.113Z" fill="#000F1F"/>
<path d="M38.4201 349.964C41.6754 346.307 52.0691 343.413 57.5287 358.782C64.0461 377.208 73.6277 390.058 100.878 395.968V405.263C100.878 405.263 69.5739 412.955 42.276 375.863C34.2981 365.04 33.0493 355.997 38.4201 349.964Z" fill="#14AFFF"/>
<path d="M99.8133 398.152C99.8133 398.152 103.287 395.272 104.788 394.74C104.788 394.74 111.988 391.027 113.142 390.522C113.142 390.522 114.65 391.717 112.944 393.334C111.623 394.499 110.182 395.519 108.644 396.378C108.644 396.378 112.159 396.596 114.302 395.9C116.445 395.204 120.724 393.948 121.986 394.583C123.249 395.218 122.198 396.248 122.198 396.248C122.198 396.248 115.632 398.166 114.227 398.596C112.991 398.964 113.469 399.387 113.469 399.387L122.86 398.835C124.286 398.753 124.866 399.517 124.511 400.766C124.511 400.766 120.26 401.046 117.687 401.448C116.786 401.592 113.64 401.503 113.851 402.513C113.851 402.513 120.717 402.82 121.884 402.731C123.051 402.643 123.658 403.591 122.962 404.622L113.619 404.922C113.619 404.922 112.971 405.065 113.21 405.461C113.449 405.857 117.605 407.072 118.089 407.085C118.574 407.099 120.075 407.283 119.748 408.45C119.748 408.45 119.584 408.839 118.171 408.689C116.759 408.539 110.05 408.055 110.05 408.055C106.958 408.024 103.913 407.301 101.137 405.939C96.6535 403.68 96.6536 401.667 97.7864 404.308L98.6941 401.721L99.8133 398.152Z" fill="#FFCDA9"/>
<path d="M102.141 406.649L102.768 395.552L95.7733 394.781L94.8315 405.925L102.141 406.649Z" fill="#0ED0E9"/>
<path d="M115.714 247.624H81.8922C78.3501 247.624 74.953 249.031 72.4483 251.536C69.9437 254.041 68.5366 257.438 68.5366 260.98V294.802C68.5362 297.799 69.5463 300.71 71.4038 303.062C73.2612 305.415 75.8575 307.073 78.7734 307.768V319.834L90.4296 308.178H115.68C117.44 308.185 119.185 307.844 120.813 307.175C122.441 306.506 123.92 305.521 125.167 304.278C126.413 303.035 127.401 301.558 128.074 299.932C128.748 298.305 129.093 296.562 129.09 294.802V260.98C129.09 259.224 128.744 257.486 128.072 255.864C127.399 254.242 126.414 252.769 125.171 251.529C123.929 250.288 122.454 249.305 120.832 248.635C119.209 247.965 117.47 247.621 115.714 247.624V247.624Z" fill="#0ED0E9"/>
<path d="M117.4 274.881C117.405 272.697 116.701 270.57 115.393 268.819C114.086 267.069 112.246 265.79 110.15 265.175C108.054 264.56 105.815 264.641 103.769 265.407C101.723 266.172 99.9803 267.581 98.8034 269.422C97.9745 268.117 96.8571 267.021 95.5373 266.216C94.2176 265.412 92.7308 264.922 91.1916 264.783C89.6524 264.644 88.1017 264.86 86.6594 265.415C85.217 265.97 83.9214 266.849 82.8724 267.984C81.8234 269.119 81.049 270.48 80.6089 271.962C80.1689 273.443 80.075 275.006 80.3343 276.529C80.5937 278.053 81.1995 279.497 82.105 280.749C83.0105 282.002 84.1916 283.029 85.5571 283.753L98.8034 291.547L112.043 283.794C113.661 282.935 115.014 281.651 115.958 280.081C116.901 278.511 117.4 276.713 117.4 274.881V274.881Z" fill="#E9280E"/>
<path d="M166.939 211.823H140.692C137.944 211.823 135.308 212.914 133.364 214.857C131.42 216.799 130.327 219.434 130.326 222.182V248.436C130.328 250.76 131.114 253.015 132.555 254.837C133.996 256.66 136.009 257.944 138.269 258.482V267.845L147.319 258.789H166.939C169.687 258.789 172.322 257.698 174.264 255.755C176.207 253.812 177.299 251.177 177.299 248.429V222.182C177.299 219.435 176.207 216.8 174.264 214.857C172.322 212.914 169.687 211.823 166.939 211.823V211.823Z" fill="#0ED0E9"/>
<path d="M141.129 234.944C141.129 237.453 141.873 239.906 143.267 241.993C144.661 244.079 146.642 245.705 148.96 246.665C151.279 247.625 153.829 247.877 156.29 247.387C158.751 246.898 161.012 245.689 162.786 243.915C164.561 242.141 165.769 239.88 166.258 237.419C166.748 234.958 166.497 232.407 165.536 230.089C164.576 227.771 162.95 225.79 160.864 224.396C158.777 223.002 156.325 222.257 153.815 222.257C152.149 222.257 150.499 222.584 148.959 223.221C147.42 223.859 146.021 224.793 144.842 225.971C143.664 227.15 142.73 228.548 142.093 230.088C141.455 231.628 141.128 233.278 141.129 234.944V234.944Z" fill="#001895"/>
<path d="M152.191 232.856C152.079 232.856 151.97 232.812 151.89 232.733C151.809 232.654 151.763 232.546 151.762 232.433C151.774 232.275 151.753 232.115 151.701 231.965C151.649 231.815 151.566 231.677 151.458 231.561C151.35 231.444 151.219 231.351 151.073 231.288C150.928 231.224 150.771 231.191 150.612 231.191C150.453 231.191 150.296 231.224 150.15 231.288C150.004 231.351 149.873 231.444 149.765 231.561C149.657 231.677 149.575 231.815 149.522 231.965C149.47 232.115 149.449 232.275 149.462 232.433C149.449 232.537 149.398 232.632 149.319 232.702C149.241 232.771 149.14 232.809 149.035 232.809C148.931 232.809 148.829 232.771 148.751 232.702C148.672 232.632 148.622 232.537 148.609 232.433C148.593 232.16 148.633 231.887 148.726 231.63C148.82 231.373 148.965 231.138 149.152 230.939C149.34 230.74 149.566 230.582 149.817 230.474C150.068 230.366 150.338 230.31 150.612 230.31C150.885 230.31 151.155 230.366 151.406 230.474C151.657 230.582 151.884 230.74 152.071 230.939C152.259 231.138 152.404 231.373 152.497 231.63C152.591 231.887 152.631 232.16 152.615 232.433C152.615 232.545 152.57 232.653 152.491 232.732C152.411 232.812 152.304 232.856 152.191 232.856Z" fill="#0ED0E9"/>
<path d="M158.436 232.856C158.323 232.856 158.216 232.812 158.136 232.732C158.057 232.653 158.013 232.545 158.013 232.433C158.013 232.127 157.891 231.834 157.675 231.618C157.458 231.401 157.165 231.28 156.859 231.28C156.553 231.28 156.26 231.401 156.044 231.618C155.827 231.834 155.706 232.127 155.706 232.433C155.693 232.537 155.642 232.632 155.564 232.702C155.485 232.771 155.384 232.809 155.279 232.809C155.175 232.809 155.074 232.771 154.995 232.702C154.917 232.632 154.866 232.537 154.853 232.433C154.837 232.16 154.877 231.887 154.97 231.63C155.064 231.373 155.209 231.138 155.396 230.939C155.584 230.74 155.81 230.582 156.061 230.474C156.312 230.366 156.582 230.31 156.856 230.31C157.129 230.31 157.4 230.366 157.651 230.474C157.902 230.582 158.128 230.74 158.315 230.939C158.503 231.138 158.648 231.373 158.741 231.63C158.835 231.887 158.875 232.16 158.859 232.433C158.859 232.545 158.814 232.653 158.735 232.732C158.655 232.812 158.548 232.856 158.436 232.856V232.856Z" fill="#0ED0E9"/>
<path d="M153.816 242.67C155.603 242.67 157.317 241.96 158.581 240.697C159.845 239.434 160.556 237.721 160.558 235.934H147.073C147.073 236.819 147.247 237.695 147.586 238.513C147.925 239.331 148.422 240.074 149.048 240.699C149.674 241.325 150.418 241.821 151.236 242.159C152.054 242.497 152.93 242.671 153.816 242.67V242.67Z" fill="#D4E4FF"/>
<path d="M488.741 160.564L485.779 171.313L497.381 168.672C503.634 172.526 511.095 173.921 518.318 172.587C525.541 171.252 532.011 167.283 536.474 161.449C540.937 155.615 543.075 148.332 542.472 141.011C541.87 133.691 538.571 126.854 533.215 121.828C527.858 116.802 520.827 113.944 513.483 113.807C506.139 113.671 499.006 116.267 493.467 121.091C487.928 125.916 484.378 132.625 483.505 139.918C482.632 147.211 484.498 154.569 488.741 160.564V160.564Z" fill="#003591"/>
<path d="M532.384 136.139H494.986C494.435 136.139 493.989 136.585 493.989 137.136V157.8C493.989 158.351 494.435 158.797 494.986 158.797H532.384C532.934 158.797 533.38 158.351 533.38 157.8V137.136C533.38 136.585 532.934 136.139 532.384 136.139Z" fill="#FFC01C"/>
<path d="M532.343 136.139H495.027C494.454 136.139 493.989 136.604 493.989 137.177V157.759C493.989 158.332 494.454 158.797 495.027 158.797H532.343C532.916 158.797 533.38 158.332 533.38 157.759V137.177C533.38 136.604 532.916 136.139 532.343 136.139Z" fill="#FFC01C"/>
<path d="M494.993 158.025C495.512 158.505 496.19 158.777 496.897 158.79H530.432C531.177 158.786 531.892 158.498 532.432 157.984C532.808 157.548 533.085 157.036 533.244 156.483L515.644 142.199C515.377 141.966 515.067 141.788 514.731 141.675C514.395 141.563 514.04 141.518 513.686 141.543C513.333 141.569 512.988 141.664 512.671 141.823C512.355 141.983 512.073 142.203 511.842 142.472L494.686 157.664C494.779 157.792 494.881 157.913 494.993 158.025Z" fill="#FFB01C"/>
<path opacity="0.35" d="M417.835 198.597C424.779 162.541 401.178 127.683 365.122 120.74C329.067 113.797 294.209 137.397 287.266 173.453C280.322 209.509 303.923 244.366 339.979 251.309C376.034 258.253 410.892 234.652 417.835 198.597Z" fill="#A2FFFF"/>
<path d="M497.893 126.176H529.477C529.839 126.176 530.186 126.319 530.442 126.575C530.698 126.831 530.842 127.178 530.842 127.54V148.901H496.542V127.54C496.542 127.181 496.684 126.836 496.937 126.58C497.19 126.325 497.533 126.179 497.893 126.176Z" fill="#D4E4FF"/>
<path d="M510.723 129.008H499.224C499.16 129.008 499.1 128.982 499.055 128.938C499.01 128.893 498.985 128.832 498.985 128.769C498.987 128.707 499.013 128.648 499.057 128.604C499.102 128.561 499.162 128.537 499.224 128.537H510.723C510.754 128.536 510.785 128.541 510.814 128.552C510.843 128.564 510.869 128.581 510.891 128.602C510.914 128.624 510.931 128.65 510.944 128.678C510.956 128.707 510.962 128.738 510.962 128.769C510.963 128.8 510.957 128.832 510.946 128.861C510.934 128.891 510.916 128.917 510.894 128.94C510.872 128.962 510.845 128.98 510.816 128.991C510.786 129.003 510.755 129.009 510.723 129.008Z" fill="#0ED0E9"/>
<path d="M510.723 131.11H499.224C499.162 131.11 499.102 131.085 499.057 131.042C499.013 130.999 498.987 130.94 498.985 130.878C498.985 130.814 499.01 130.754 499.055 130.709C499.1 130.664 499.16 130.639 499.224 130.639H510.723C510.755 130.638 510.786 130.643 510.816 130.655C510.845 130.667 510.872 130.684 510.894 130.707C510.916 130.729 510.934 130.756 510.946 130.785C510.957 130.815 510.963 130.846 510.962 130.878C510.962 130.909 510.956 130.939 510.944 130.968C510.931 130.997 510.914 131.023 510.891 131.044C510.869 131.066 510.843 131.083 510.814 131.094C510.785 131.105 510.754 131.111 510.723 131.11Z" fill="#0ED0E9"/>
<path d="M527.934 134.133H499.224C499.16 134.133 499.1 134.108 499.055 134.063C499.01 134.018 498.985 133.957 498.985 133.894C498.985 133.831 499.01 133.77 499.055 133.725C499.1 133.68 499.16 133.655 499.224 133.655H527.934C527.998 133.655 528.058 133.68 528.103 133.725C528.148 133.77 528.173 133.831 528.173 133.894C528.173 133.957 528.148 134.018 528.103 134.063C528.058 134.108 527.998 134.133 527.934 134.133Z" fill="#14AFFF"/>
<path d="M527.934 136.139H499.224C499.162 136.139 499.102 136.115 499.057 136.072C499.013 136.028 498.987 135.969 498.985 135.907C498.985 135.844 499.01 135.783 499.055 135.738C499.1 135.694 499.16 135.668 499.224 135.668H527.934C527.998 135.668 528.058 135.694 528.103 135.738C528.148 135.783 528.173 135.844 528.173 135.907C528.171 135.969 528.146 136.028 528.101 136.072C528.056 136.115 527.997 136.139 527.934 136.139Z" fill="#14AFFF"/>
<path d="M527.934 138.153H499.224C499.16 138.153 499.1 138.127 499.055 138.083C499.01 138.038 498.985 137.977 498.985 137.914C498.985 137.85 499.01 137.79 499.055 137.745C499.1 137.7 499.16 137.675 499.224 137.675H527.934C527.998 137.675 528.058 137.7 528.103 137.745C528.148 137.79 528.173 137.85 528.173 137.914C528.173 137.977 528.148 138.038 528.103 138.083C528.058 138.127 527.998 138.153 527.934 138.153Z" fill="#14AFFF"/>
<path d="M527.934 140.159H499.224C499.16 140.159 499.1 140.134 499.055 140.089C499.01 140.044 498.985 139.983 498.985 139.92C498.985 139.889 498.991 139.858 499.003 139.829C499.015 139.8 499.033 139.773 499.055 139.751C499.077 139.729 499.103 139.711 499.132 139.699C499.161 139.687 499.192 139.681 499.224 139.681H527.934C527.966 139.681 527.997 139.687 528.026 139.699C528.055 139.711 528.081 139.729 528.103 139.751C528.125 139.773 528.143 139.8 528.155 139.829C528.167 139.858 528.173 139.889 528.173 139.92C528.173 139.983 528.148 140.044 528.103 140.089C528.058 140.134 527.998 140.159 527.934 140.159Z" fill="#14AFFF"/>
<path d="M527.934 142.165H499.224C499.16 142.165 499.1 142.14 499.055 142.095C499.01 142.051 498.985 141.99 498.985 141.926C498.987 141.864 499.013 141.805 499.057 141.762C499.102 141.719 499.162 141.694 499.224 141.694H527.934C527.997 141.694 528.056 141.719 528.101 141.762C528.146 141.805 528.171 141.864 528.173 141.926C528.173 141.99 528.148 142.051 528.103 142.095C528.058 142.14 527.998 142.165 527.934 142.165Z" fill="#14AFFF"/>
<path d="M527.934 144.179H499.224C499.16 144.179 499.1 144.153 499.055 144.109C499.01 144.064 498.985 144.003 498.985 143.94C498.985 143.876 499.01 143.816 499.055 143.771C499.1 143.726 499.16 143.701 499.224 143.701H527.934C527.998 143.701 528.058 143.726 528.103 143.771C528.148 143.816 528.173 143.876 528.173 143.94C528.173 144.003 528.148 144.064 528.103 144.109C528.058 144.153 527.998 144.179 527.934 144.179Z" fill="#14AFFF"/>
<g style="mix-blend-mode:multiply">
<path d="M530.828 138.453L516.005 144.834L511.883 144.841L496.815 136.139L512.327 149.502L525.041 146.192" fill="#D5F5FF"/>
</g>
<path d="M515.685 144.609C515.122 144.202 514.435 144.003 513.742 144.045C513.049 144.087 512.392 144.368 511.883 144.841L494.686 157.807C494.957 158.146 495.31 158.411 495.71 158.579C496.11 158.747 496.546 158.813 496.979 158.769H530.808C531.371 158.741 531.911 158.535 532.35 158.181C532.789 157.826 533.104 157.342 533.251 156.797L515.685 144.609Z" fill="#FFBC3A"/>
<path d="M401.121 54.3817L404.534 63.506L395.252 59.8754C391.008 62.4743 385.951 63.4051 381.059 62.4873C376.168 61.5695 371.792 58.8685 368.779 54.9077C365.766 50.947 364.33 46.0087 364.751 41.0499C365.171 36.0911 367.418 31.4651 371.055 28.0684C374.692 24.6718 379.461 22.7464 384.437 22.6655C389.413 22.5846 394.242 24.3539 397.987 27.6306C401.733 30.9072 404.129 35.4578 404.71 40.4002C405.292 45.3427 404.018 50.3251 401.135 54.3817H401.121Z" fill="#33497F"/>
<path d="M382.566 53.4331C382.093 53.4345 381.625 53.3423 381.188 53.162C380.751 52.9816 380.354 52.7166 380.02 52.3821L374.335 46.6905C373.692 46.0101 373.339 45.1056 373.352 44.1692C373.365 43.2328 373.743 42.3385 374.405 41.6763C375.068 41.0141 375.962 40.6363 376.898 40.6232C377.835 40.6101 378.739 40.9628 379.42 41.6063L382.566 44.7523L392.311 35.0001C392.641 34.6508 393.038 34.3713 393.479 34.1781C393.919 33.9848 394.393 33.8818 394.874 33.8751C395.355 33.8684 395.832 33.9581 396.277 34.139C396.723 34.3199 397.127 34.5882 397.467 34.9281C397.807 35.2681 398.076 35.6727 398.257 36.1182C398.437 36.5636 398.527 37.0408 398.52 37.5215C398.514 38.0022 398.411 38.4767 398.217 38.9169C398.024 39.3571 397.745 39.7541 397.395 40.0844L385.111 52.3685C384.778 52.7054 384.382 52.9729 383.945 53.1557C383.508 53.3384 383.039 53.4327 382.566 53.4331Z" fill="#D4E4FF"/>
<defs>
<linearGradient id="paint0_linear_27_1752" x1="66.9531" y1="128.66" x2="93.05" y2="154.757" gradientUnits="userSpaceOnUse">
<stop stop-color="#E2F3F8"/>
<stop offset="1" stop-color="#D7E4FF"/>
</linearGradient>
<linearGradient id="paint1_linear_27_1752" x1="49539.2" y1="5200.18" x2="49020.1" y2="6095.17" gradientUnits="userSpaceOnUse">
<stop stop-color="#E2F3F8"/>
<stop offset="1" stop-color="#D7E4FF"/>
</linearGradient>
<linearGradient id="paint2_linear_27_1752" x1="478.307" y1="227.294" x2="478.307" y2="223.213" gradientUnits="userSpaceOnUse">
<stop stop-color="#00DFFF"/>
<stop offset="0.25" stop-color="#00CCFF"/>
<stop offset="0.76" stop-color="#009CFF"/>
<stop offset="1" stop-color="#0082FF"/>
</linearGradient>
</defs>
</svg>
